<?xml version="1.0" encoding="utf-8"?>
<!-- Generator: Adobe Illustrator 26.0.2, SVG Export Plug-In . SVG Version: 6.00 Build 0)  -->
<svg version="1.1" id="Layer_1" xmlns="http://www.w3.org/2000/svg" xmlns:xlink="http://www.w3.org/1999/xlink" x="0px" y="0px"
	 viewBox="0 0 280 140" style="enable-background:new 0 0 280 140;" xml:space="preserve">
<style type="text/css">
	.st0{fill:#FFF043;}
	.st1{fill:#616A79;}
	.st2{opacity:0.25;enable-background:new;}
	.st3{opacity:0.2;enable-background:new;}
	.st4{fill:#FFFFFF;}
</style>
<path class="st0" d="M139.6,101.5c-10,0-19.5-4.3-26.1-11.7c-5.7-6.4-8.9-14.7-8.9-23.4c0-19.3,15.7-35.1,35.1-35.1
	c8.6,0,16.9,3.2,23.4,8.9c7.4,6.6,11.7,16.2,11.7,26.1C174.7,85.8,158.9,101.5,139.6,101.5"/>
<path class="st1" d="M169.4,66.5c0,3.1-0.5,6.1-1.4,8.9c-3.5,11.2-13.4,19.5-25.4,20.7c-1,0.1-2,0.1-3,0.1c-8.8,0-16.7-3.8-22.2-9.9
	c0,0-0.1-0.1-0.1-0.2c-4.6-5.2-7.4-12.1-7.4-19.7c0-16.4,13.3-29.7,29.7-29.7c7.5,0,14.4,2.8,19.7,7.4c0,0,0.1,0.1,0.2,0.1
	C165.5,49.8,169.4,57.7,169.4,66.5"/>
<path class="st2" d="M121.2,78.4l23.5,17.4c15-3,22.3-13.9,24.1-23.9L158,62.6L121.2,78.4z"/>
<path class="st3" d="M139.6,36.7c-16.4,0-29.7,13.3-29.7,29.7l0,0c0,0,0,0,0,0.1l0,0c0,0,0,0,0,0.1l0,0c0,0,0,0,0,0.1l0,0l0,0l0,0
	l0,0c0,0,0,0,0,0.1l0,0v0.1l0,0c0.1,7.3,2.9,14,7.5,19.1l0.1,0.1c0.1,0.2,0.3,0.3,0.4,0.5l0,0l0,0c0.8,0.9,1.6,1.7,2.5,2.4
	c-4.4-5.2-7-11.9-7-19.2c0-16.4,13.3-29.7,29.7-29.7c7.3,0,14,2.6,19.2,7c-4.9-5.8-12.1-9.7-20.1-10.4l0,0h-0.1l0,0
	c-0.1,0-0.1,0-0.2,0l0,0h-0.1l0,0h-0.1l0,0h-0.1l0,0l0,0l0,0h-0.1l0,0c0,0,0,0-0.1,0l0,0l0,0l0,0c0,0,0,0-0.1,0l0,0c0,0,0,0-0.1,0
	l0,0l0,0c0,0,0,0-0.1,0l0,0l0,0l0,0c0,0,0,0-0.1,0l0,0c0,0,0,0-0.1,0l0,0l0,0l0,0c0,0,0,0-0.1,0l0,0c0,0,0,0-0.1,0l0,0
	c0,0,0,0-0.1,0l0,0c0,0,0,0-0.1,0l0,0c0,0,0,0-0.1,0l0,0c0,0,0,0-0.1,0l0,0c0,0,0,0-0.1,0l0,0h-0.1l0,0c0,0,0,0-0.1,0l0,0
	C139.8,36.7,139.7,36.7,139.6,36.7C139.7,36.7,139.7,36.7,139.6,36.7C139.7,36.7,139.6,36.7,139.6,36.7L139.6,36.7"/>
<g>
	<path class="st4" d="M121.2,61.6c0,5.6,0,11.2,0,16.8c0.4,0.4,0.5,0.5,1.1,0.2c2.7-1.5,5.5-3,8.2-4.5c0.1-0.1,0.2-0.1,0.4-0.2
		c0,0.8,0,1.5,0,2.2c0.1,0.6,0.1,1.2,0.4,1.7c0.8,1.6,2.1,2.3,3.9,2.3c6.2,0,12.5,0,18.7,0c0.2,0,0.3,0,0.5,0
		c2.1-0.1,3.7-1.8,3.7-3.9c0-4.1,0-8.3,0-12.4c0-1.9-1.4-3.5-3.3-3.8c-0.3-0.1-0.6-0.1-0.9-0.1c-6.3,0-12.6,0-18.9,0
		c-1,0-1.8,0.2-2.6,0.8c-1,0.8-1.6,1.9-1.6,3.2c0,0.7,0,1.5,0,2.3c-0.2-0.1-0.3-0.2-0.4-0.2c-2.7-1.5-5.5-3-8.2-4.5
		C121.8,61.2,121.6,61.2,121.2,61.6z"/>
	<path class="st4" d="M139.4,46.4c-3.3,0-5.9,2.7-5.9,5.9c0,3.2,2.7,5.8,5.9,5.8c3.2,0,5.9-2.7,5.9-5.9
		C145.3,49,142.6,46.4,139.4,46.4z"/>
	<path class="st4" d="M156.3,52.3c0-2.3-1.9-4.2-4.3-4.2c-2.3,0-4.3,1.9-4.2,4.3c0,2.3,1.9,4.2,4.3,4.2
		C154.4,56.5,156.3,54.6,156.3,52.3z"/>
</g>
</svg>
