<?xml version="1.0" encoding="UTF-8"?>
<svg xmlns="http://www.w3.org/2000/svg" viewBox="0 0 230.32 150.77">
  <g style="isolation: isolate;">
    <g id="BG">
      <rect width="230" height="150" style="fill: #fff;"/>
    </g>
    <g id="Objects">
      <g>
        <g>
          <path d="m114.89,90.15c-28.38,0-51.39,1.82-51.39,4.07,0,.13-.06.56.08.68,2.37,2.08,24.5,3.28,51.29,3.28s50.01-1.19,51.39-3.34c.04-.07.01-.54.01-.61,0-2.25-23.01-4.07-51.39-4.07Z" style="fill: #231f20;"/>
          <ellipse cx="114.89" cy="94.73" rx="51.39" ry="3.56" style="fill: #231f20;"/>
        </g>
        <path d="m173.31,92.32c.39-.8.77-1.34.59-1.34s-.59.03-1.55-.2c-.86-.21-2.06-.44-2.54-.98,0,0,.01-1.88.05-2.43.04-.54,0-1.22-.22-1.68-.22-.46-.88-1.26-1.27-1.63-.39-.37-.5-.59-.55-.73-.05-.14-.04-.42-.18-.71-.08-.17-.26-.29-.45-.37-.02-.04-.04-.08-.05-.1-.02-.07,0-.27.05-.28.04,0,.1.05.22.16-.01-.06-.02-.09-.15-.19.12,0,.24.09.34.23-.03-.15-.08-.2-.28-.31.18-.16.45-.78.46-1.15.09-.02.26-.16.51-.5.25-.34.53-1.22.38-2.19-.14-.97-.64-.89-.67-.85-.03.04-.13-.06-.17-.2-.03-.14-.18-.17-.23-.21-.05-.04-.11-.27-.25-.48-.14-.21-.58-.03-.67.03-1.16-.98-2.95.72-3.18,1.16-.24.44-.13.57-.18.7-.05.13-.13.31-.13.53s-.1.59-.14.78c-.04.19-.05.32,0,.42.05.1.06.28.05.41,0,.13-.21.45-.39.85-.18.4.24.33.36.31.11-.03.13.06.13.19s0,.21.1.23c.09.02.13.2.09.29-.05.09,0,.25.07.29.07.04.05.2.05.44s.13.38.34.42c.21.03.57.08.76.16.19.08.24.52.24.52-.61.15-.93.85-1.21,1.34-.28.49-.53,1.21-.61,1.82-.08.61-.03,1.12-.03,1.31s-.18.58-.26.75c-.1.11-.01.33.09.52,0,0,0,0,0,0-.16.51-.12,1.14-.09,1.48.01.14.02.31.02.48-.14.59-.31.91-.35.99-.05.08-.18.03-.83-.03-.65-.07-1.38-.31-1.87-.76-.49-.44-.8.08-.92.31-.11.22.36.84.6,1.05.24.21,1.18,1.03,1.96,1.27.78.25,1.24.31,1.35.34.03.01.07.02.11.04.12.28.38.49.59.6.01,0,.02.01.03.02-.02.1-.05.33-.09.55-1.66.14-3.91.34-4.24.37-.53.05-.15.56-.04.61,0,0,0,0,.02,0l-.06.63s2.01-.14,4.11-.27c-.03.1-.07.19-.12.24-.15.17-.38.41-.5.56s-.42.17-.63.17-2.17-.07-2.82-.03c-.65.03-2.09.14-2.56,1.15-.27.59-.38,1.3-.43,1.95-.57.15-.93.34-.03.5,0,.27-.01.51-.01.71-.01.75,0,2.05-.03,2.63-.03.58-.09,1.14-.18,1.48-.08.34-.16.68-.16.68,0,0,.19.23.56.46.02.25.11,1.37.06,1.77-.05.44-.43,1.43-.66,1.73-.23.31-.46.63-.65.95-.02.04-.05.08-.07.11,0,0,0,0,0-.01,0,0-.03.04-.06.09-.34.45-.67.53-1.01.61-.36.08-.53.17-.53.17-.55.83,2.86.05,3.06.05s.45-.17.65-.31c.06-.04.12-.07.18-.08.15.44.44.68.86.74.65.1,5.14.15,6.1.15s9.28.03,9.28.03c.24-.02.42-.12.35-.39-.07-.27-.27-.27-.67-.25-.38.02-8.38.02-9.97.02,0,0,0,0,0,0h0s0,0,0,0c-.1-.08-.39-.36-.39-.77,0-.49.03-9.64.03-9.74.12.02.23.03.31.05,1.11.19,3.91.48,5.53.17,1.62-.31,2.59-.12,2.74-1.49.11-1,.14-1.96.32-3.19,0,.03,0,.05,0,.08.4-.05,1.44-.14,1.71-.23.27-.08.41-.51.05-.68-.16-.07-.83-.26-1.53-.44.01-.07.03-.15.05-.22.43-2.04.98-3.56,1.37-4.36Zm-14.03,17.26c-.05.83-.09,1.05-.27,1.39-.15.28-.39.56-.47.65-.01-.11-.02-.19-.07-.29-.12-.39-.23-.49-.32-.73-.09-.24-.12-.73-.11-1.1.01-.36.16-1.2.17-1.25.06,0,.13-.01.19-.02,0,0,0-.02.03-.07,0,0,0,0,0,0,0-.01,0-.02.01-.03,0,0,0,.02,0,.02.03-.05.08-.09.16-.11.11.01.29.03.52.03.05.17.22.79.17,1.5Zm1.68,3.56c-.28,0-.57,0-.85-.01.12-.09.27-.21.44-.31.12-.06.24-.09.32-.06,0,0,.01,0,.02,0,.07.06.07.16.07.16v.21Zm.88.01c.01-.14.03-.36.05-.62.03-.29.05-.63.02-.9.01.06.01.09.01.05-.01-.1,0-.24-.1-.46-.02-.04-.04-.08-.07-.11-.1-.26-.19-.41-.31-.58-.13-.19-.28-.71-.34-1.05-.05-.33-.21-1.18-.23-1.74.06-.04.11-.08.16-.13-.12-.61-.19-.75-.26-1.1-.07-.36-.08-.8-.12-1.02-.04-.22-.22-.78-.23-1.05-.01-.27-.01-.78-.07-1.07-.05-.29-.3-.85-.11-1.05,0,0,0,0,0,0,.7.09,1.41.17,1.97.25l-.04,9.61s0,.32.1.61c.07.2.17.33.2.37-.18,0-.4,0-.65,0Z" style="fill: #231f20;"/>
        <path d="m79.03,106.14c-.55-.03-.95-.48-1.21-.71-.26-.23-.63-.61-.63-.61,0,0,.16-.1.08-.36s-.24-1.07-.47-1.4c-.22-.33-.24-1.22-.49-1.78-.24-.56-.75-2.22-1.13-3.18s-.57-1.73-1.11-1.96c-.27-.11-.58-.14-.91-.12-.1-.11-.21-.19-.31-.25-.44-.22-2.12-.38-2.6-.41-.22-.01-.95-.06-1.74-.12.02,0,.04,0,.06,0,.36-.03.66.03.66.03,0,0-.05-.51-.16-.76-.11-.25-.45-.73-.63-.93-.19-.2-.38-.51-.53-.56-.15-.05-.24-.05-.35-.2-.11-.15-.27-.37-.34-.46-.07-.08-.2-.39-.46-.59-.26-.2-.81-1.02-.84-1.22-.03-.2-.09-.66-.55-1.34-.46-.68-.51-.71-.77-1.22-.26-.51-.38-1.07-1.05-1.39-.67-.32-1.21-.39-1.21-.39,0,0,.14-.2.29-.23.15-.03.53-.04.53-.43,0,0-.04-.37,0-.43.04-.06.09-.22.06-.32-.03-.1-.05-.16-.07-.2.08.01.12-.08.14-.15s-.05-.24-.03-.31c.06-.06.21-.13.19-.29s-.09-.35-.07-.49c.08-.08.28-.18.29-.57.04,0,.04-.04.04-.15s-.02-.2-.02-.2l-.39-.1s-.04,0-.02-.13c.02-.16-.05-.23-.1-.37-.05-.15-.12-.79-.31-1.25.04-.08.17-.47.06-.68-.18-.37-.61-.84-.94-1.1-.33-.26-.64-.76-1.66-.41-.17.05-.38.07-.63.08-.24.02-1.23.41-1.68,1.39-.45.98-.32,1.15-.34,1.34s-.07.32-.27.41c-.2.08-.46.42-.09,1.05.37.63.47,1.01.29,1.21-.18.2-.64.48-.34,1.22s.54.87.63,1.04c.09.17.09.5.34.5.23,0,.35-.1.39-.05-.02.01-.04.02-.04.02l.06.17s-.03.04-.05.08c-.03.08-.03.14-.02.22s-.07.2-.11.32c-.04.12-.33.54-.45.87-.11.32-.12.64-.19.75-.07.11-.18.46-.21.8-.6.2-1.08.31-1.32.29-.38-.03-.28.03-.2.15,0,0,.79,1.3,1.25,2.39.37.87.8,2.08,1.06,3.39-.73.18-1.45.37-1.65.43-.42.14-.2.73.13.8.34.07,1.73.14,1.73.14,0,0,0,0,0,0,.16,1.41.15,1.94.21,2.61.06.73.3,2.39,1.94,2.59,1.64.2,5.91-.28,6.86-.46.03,0,.07-.01.1-.02,0,.17.14,7.01.21,8.58.06,1.52-.47,1.71-.88,1.8-.23.01-.48.03-.56.04-1.96.04-8.91-.02-9.13-.03-.26,0-.62-.03-.62.34s.27.41.27.41h15.24c.4,0,.73-.26.92-.56,1.04.03,2.08.06,2.12.03.08-.05.32-.05.26-.33-.06-.28-.28-.36-.65-.53-.14-.07-.3-.17-.46-.29-.02-.01-.04-.03-.06-.04,0,0,0,0,0,0-.25-.19-.5-.4-.68-.53-.09-.07-.15-.16-.18-.26,0-.08,0-.26,0-.52.12-.05.38-.15.57-.21.24-.08,1.21-.71,1.21-.71,0,0-.1-1.22-.2-1.73-.08-.38-.16-1.57-.2-2.14,0,0,0-.02,0-.05-.01-.16-.02-.25-.02-.25,0,0,.3-.13.24.1-.06.23-.16.46-.16.46,0,0,0,.46.08.99.24.28,1.11.56,1.42.66s1.21.53,1.68.53,1.58-.51,1.76-.61c.18-.1.38-.28.2-.76-.18-.48-.57-.33-1.11-.36Zm-15.7-23.53c.11-.02.27.08.27.08,0,0,.08.44-.2.49,0,0-.18-.56-.07-.58Zm-.45-2.13s-.01.04-.01.06c-.07-.17-.16-.31-.27-.4,0,0,.39-.08.28.34Zm-4.33,16.2l-.23.02c.07-.02.14-.04.22-.06,0,.05.02.11.02.16l-.02-.12Zm.04.24h0s.01.08.02.13c0,0,0,0,0,.01,0-.05-.01-.1-.02-.14Zm12.85,13.9c-.18,0-.22-.03-.34.36-.23.77-.06,1.3-.01,1.42-.98,0-2.44-.01-2.97-.01,0,0,.25-.34.32-.91.07-.5.04-1.09.04-1.83,0-1.22-.11-7.62-.12-7.84.45-.07.91-.14,1.28-.16.05.01.44.12.82.1.16.27.3.52.39.64.22.33.22.64.2.93-.02.29-.16.52-.06.85s.36.44.28.75c-.08.31-.04.66-.02.88.02.22.12,1.21.14,1.54.02.33-.1,1.07-.1,1.5s.16,1.35.16,1.35c0,.13.08.25,0,.43Z" style="fill: #231f20;"/>
        <path d="m88.99,99.82c-.03-.62-.22-1.46-.78-1.87-.14-.1-.34-.22-.59-.35,0-.12,0-.24-.02-.37.18.18.39.01.41-.15.02-.18-.03-.79-.35-1.41s-.91-.67-1.37-.75-3.05-.59-3.36-.61c-.16-.01-.4-.06-.64-.08-.01-.08-.02-.16-.02-.25,0-.42-.16-.81-.08-1.36.06-.38.06-.94.09-1.42.12-.73.29-1.68.29-1.68,0,0,.17.29.6.67s1.05.98,1.54,1.22c.45.22,1.16.14,1.35.06.18-.08.53-.04.77-.06.24-.03.5-.09.67-.23.17-.14.59-.15.8-.36.21-1.66-.3-3.02-.3-3.02,0,0-.53.21-.71.29-.22.1-.73.21-.92.25-.33.08-.54.12-.81-.13-.25-.23-.37-.31-.46-.41-.08-.1-.39-.42-.53-.66-.13-.24-.37-.57-.53-.76-.22-.27-.24-.34-.34-.52-.1-.18-.15-.37-.24-.62-.05-.15-.16-.32-.23-.48.2-.97.04-1.76-.2-2.22-.2-.37-.46-.53-.69-.61.02-.04.03-.11,0-.24.08-.13.07-.28.06-.37-.01-.09-.06-.19-.03-.24.03-.05.11-.13.21-.22s.22-.28.06-.55c-.16-.27-.35-.51-.38-.62,0,0,.05-.29.03-.41s-.04-.37-.03-.5-.02-.84-.25-1.48c-.27-.75-.84-1.54-1.59-1.78-.75-.24-1.46-.08-1.6.07-.12-.1-.74-.27-1.11-.18s-1.3.52-1.44,1.87c-.05.5-.05.83-.01,1.55.02.42.03.87.05,1.12.03.35.07.81.13,1.03,0,0,0,.01,0,.02-.26.13-.65.58-1.03.91-.41.37-.91.61-1.15.87-.24.25-.42.51-.59.65-.16.14-.38.38-.46.57-.07.19-.09.95-.05,1.45s.08.98.09,1.22c0,.09.02.19.04.29-.01-.02-.02-.04-.02-.04,0,0,.02.09.06.21.02.11.05.22.07.33.03.19,0,.47-.02.62-1.39.12-2.87.15-4.22-.01,0,0,1.13,2.96,1.62,6.92-.63.03-1.04.05-1.04.05,0,0-.63-.07-.53.61.07.19.23.29.45.32.21.03,1.14.14,1.23.15,0,.03,0,.06,0,.09.06.9.13,2.75.16,3.23s.2,1.49,1.25,1.58c0,0,.02,0,.02,0,.34.24.82.56,1.12.7.51.24.79.2.95-.04.07-.1.13-.22.18-.32.77.12,1.59.23,2.29.27l-.05,9.43s.07,1.49-.58,1.51c-.65.02-6.39.07-6.39.07,0,0-.52-.13-.54.38-.01.33.21.38.36.4,0,0,16.35.08,17.1-.08.27-.06.46-.21.58-.38.02-.01.04-.02.06-.04.14,0,.24,0,.3,0,.46,0,1.15-.02,1.15-.02,0,0,.3-.58-.49-.78-.18-.05-.51-.15-.74-.24,0-.14,0-.41,0-.79.02,0,.03,0,.05-.01,0,0,0,0,0,0,0,0,0,0,0,0,.08-.03.11-.1.12-.2,0-.02,0-.06.01-.12,0-.02,0-.03,0-.05,0-.06.02-.19.04-.36.05-.45.12-1.09.19-1.65.04-.26.08-.53.12-.79.01-.08.02-.16.03-.24.04-.32.08-.63.1-.91.04-.64.06-1.2.15-2.24s.2-1.9.2-1.9v.04c.04-.38.09-.73.12-.96.05-.33.21-1.29.18-1.91Zm-8.69,11.98c-.04.15-.13.38-.15.67,0,.11,0,.2,0,.27-1.66.03-3,.05-3,.05.15-.2.2-.44.19-.45.05-.2.1-.46.11-.8.03-.88.03-9.82.03-9.85.02,0,.04,0,.06,0,.23,0,.47-.02.7-.03.2.62.42,1.36.48,1.67.1.55.15,1.48.22,1.74.07.27.29,2.44.4,2.9s.22,1.03.2,1.32c-.02.29.03.84.12,1.12.09.28.37.46.45.7.05.17.1.29.13.35,0,.02-.01.03,0,.03.01,0,.03,0,.04,0,.04,0,.07.15.03.31Zm5.95-15.6s.64.12.75,1.1c-.73-.33-1.63-.68-2.42-.95-.78-.26-1.52-.46-2.02-.59-.06-.04-.1-.07-.12-.09-.01-.01-.02-.03-.04-.06,1.39.2,3.85.59,3.85.59Zm-1.21,7.49c0,.44-.13,1.9-.24,2.46-.11.56-.62,2.61-.67,3.29-.05.68-.08.75-.08.81,0,.03.04.06.1.1-.07.64-.35.41-.48,1.38-.06.45,0,.76.06.95-.16,0-.32,0-.49,0-.05-.15-.13-.38-.21-.51-.13-.2-.47-.71-.45-1.01.02-.29.15-.25.21-.27.06-.01.23-.14.22-.34-.01-.2,0-.59-.04-.81-.04-.23-.41-.99-.42-1.36s-.04-.79-.15-1.21c-.11-.42-.36-1.62-.35-1.92.01-.31.03-.66-.01-1.02-.04-.36-.01-1.66-.03-1.92-.02-.24-.04-.79-.07-1.13.63-.08,1.34-.17,2.01-.26.29.05.67.12.89.18.24.07.4.08.42.48.01.39-.22,1.66-.22,2.1Zm1.68,7.44c.13.02.26.03.39.03,0,.2,0,.36,0,.47-.13-.08-.27-.22-.39-.51Z" style="fill: #231f20;"/>
        <path d="m122.61,85.74c-.18-.54-.2-.58-.24-.85-.04-.27-.12-.41-.11-.76.01-.36-.01-.41-.05-.93-.04-.53-.09-1.02-.3-1.46-.2-.44-.42-.48-.78-.71-.36-.24-1.62-.9-1.75-.97-.13-.07-.4-.27-.49-.39-.08-.12-.45-.29-.66-.41-.22-.12-.69-.88-.78-1.1,0,0-.01,0-.02-.01.06-.29.3-1.14.45-1.64.17-.57.37-2.27-.43-3.25-.81-.98-1.69-.95-2.31-.93-1.8.1-2.02,1.96-2.05,2.27-.14.13-.09.39-.08.56.01.17.02.33-.04.46-.06.13-.03.22-.09.36-.06.14-.47.55-.66,1.01s.06.61.16.6c.1-.01.17.03.2.1s-.08.31-.14.53c-.06.23.07.33.14.37-.19.03-.16.2-.03.38.09.27.26.6.31.71-.72.34-1.45.67-1.65.78-.26-.07-.54.24-.63.48-.09.24-.31,1.05-.42,1.49-.11.44-.16.66-.26,1.1-.09.44-.13,1.15-.13,1.61s-.09.44-.23.87c-.13.42-.27.66-.51,1.02-.24.36-.49.68-.58,1.04-.09.36-.18.54-.32.75-.15.2-.27.41-.32.39-.04-.01-.07,0-.17.06l-.12-.11s0,0-.01,0c-.09-.14-.34-.48-.68-.73-.43-.32-.69-.42-.89-.67-.2-.25-.38-.42-.57-.49-.18-.07-.23.02-.26.08-.03.07,0,.32.17.51.16.19.34.37.45.45.11.08.22.2.28.34.06.14.18.33-.09.42-.22.08-.37.08-.4.01-.03-.07.02-.34-.21-.47-.24-.14-.13.41-.13.55,0,.14-.01.44.14.49s.19.11.13.23c-.05.12-.1.25-.07.41.03.16.14.23.28.2s.4,0,.47.06c.06.05.2.15.24.18,0,.02,0,.04,0,.06,0,.04.02.08.04.12-.02.12-.02.22,0,.24.05.07.54,1.24.66,1.49.12.25.47.33.63.31.3-.05.77-.12,1.15-.14.29-.01.59-.07.78-.09-.01.39-.02.78-.04,1.16-.08,0-.14,0-.2,0-.01-.33-.62-.19-.81-.21-.19-.02-.42.21-.53.33-.11.12-.38.4-.53.64-.15.24-.22,1.17-.22,1.68s.28.54.28.54c0,0,0,0,.01,0v.44c-.08.07-.14.13-.19.2-.23.31-.36,1.05-.28,1.36.05.21.24.99.46,1.56l-.04,12.71c0,.56.46.59.46.59,0,0,.55,0,.7-.02.15-.02,13.5.03,13.95-.02.45-.05.49-.27.47-.59-.01-.32-.42-.31-.42-.31,0,0-1.59.03-1.78.02-.19-.02-.19-.65-.19-.65l.08-8.35s0,0,.01,0c0,0,.01,0,.02,0,0,0,0,0,.02,0,0,0,0,0,0,0,.15.05.29.05.48,0,.28-.08.72-.52.91-.74.1-.12.14-.17.13-.23.1-.22.07-.44.04-.79-.04-.49-.11-1.65-.18-2.78-.05-.88-.19-1.8-.29-2.42,0-.33.01-.62.02-.85,0-.15.02-.37.03-.64.08-.02.75-.16.94-.26.2-.1.34-.54.15-.83-.16-.25-.85-.27-1.03-.27.05-1.15.12-2.52.2-3.47,0,0,.02,0,.02,0,.16.06.33-.01.48-.15.22-.18.44-.53.58-.83.18-.41.16-.95-.01-1.7-.18-.75-.54-1.54-.71-2.09Zm-14.23,10.9c.02-.5.05-1.16.13-1.5.21-.21.49-.41.76-.5.14-.03.26-.04.29-.04-.01.4-.02.78-.03,1.13-.24.15-.55.34-.86.64-.1.1-.2.19-.3.27,0,0,0,0,0-.01Zm3.5,13.66c-.13.36-.35.87-.5,1.17-.15.31-.39.61-.59.81-.16.16-.6.39-.86.6-.37,0-.64,0-.8,0-.21,0-.57,0-.74,0-.14,0-.21-.08-.25-.17,0,0,0-.01,0-.02,0,0,0,0,0-.01,0,0,0-.02,0-.03,0,0,0,0,0,0,0-.01,0-.02,0-.03,0,0,0,0,0,0,0,0,0-.02,0-.03,0-.03,0-.06-.01-.07,0-.03,0-.18,0-.35,0-1.18.04-5.74.07-9.68.21.65.48,1.33.58,1.68.12.44.19,1.15.34,1.51.15.36.51,1.73.62,2.22s.27,1.05.46,1.66c.17.55.22.81.3.91,0,.01.01.02.03.03.09.07.31.05.61-.08.08-.04.21-.11.37-.2,0,0,0,0,.01,0,.17-.08.3-.18.38-.24.02-.01.04-.02.06-.04.03.14.04.27,0,.36Zm2.76,2.24c-.05.13-.08.24-.08.33-.39,0-.78,0-1.16,0,.07-.1.13-.2.19-.26.15-.17.46-.08.69-.24.14-.09.22-.16.34-.28,0,0,0,0,0,0,0,0,0,0,0,0,0,0,.02.05.03.11.02.12.03.24,0,.32Zm.35-10.24c-.05.29-.03.78-.01,1.07.01.29-.11,1.07-.06,1.61.05.54-.04,1-.03,1.56.01.56-.11,1.46-.13,1.83-.02.23-.02.66-.03.96-.02-.04-.03-.08-.04-.1-.07-.17-.27-.59-.46-.71-.17-.1-.37-.08-.51-.27.03-.04.04-.06.04-.06,0,0-.22-.46-.36-.76-.15-.31-.46-.68-.46-.95s-.09-.85-.24-1.1c-.02-.03-.03-.05-.05-.08,0-.01-.01-.03-.02-.04-.14-.28-.25-.48-.3-.65,0-.02,0-.04-.01-.06-.04-.36-.05-.68-.36-.95-.07-.06-.11-.11-.15-.15-.06-.09-.1-.21-.1-.43,0-.05,0-.11.01-.18,0-.1,0-.21-.02-.34,0-.19-.04-.37-.12-.57-.01-.03-.02-.06-.03-.09-.07-.23-.15-.46-.24-.64-.02-.04-.03-.08-.05-.12-.03-.1-.06-.19-.08-.27.98.18,2.3.37,3.74.44.02.13.04.34.05.46.02.18.04.41.02.6Zm2.76,10.56c-.06-.11-.16-.28-.31-.49-.23-.32-.35-.81-.45-1.17,0,0,0-.02,0-.02.04,0,.06-.01.06-.01,0,0,.08-.17.04-.63s.13-.78.19-1.15c.05-.37.13-1.44.18-1.92.01-.17.04-.34.07-.53,0,0,0,.01,0,.01,0,0,.15-.79.24-1.43s.24-1.88.27-2.3.08-1.15.12-1.44c.04-.29.1-.62.1-.62,0,0,0,0-.02,0,0,0,0,0,0,0,.51-.06,1.02-.15,1.52-.27.01,0,.02,0,.03,0,0,.34-.11.96-.13,1.36,0,.17.01.34.04.49.05.25.13.47.23.61.04.06.08.11.14.15,0,0,0,0,0,0,0,0,0,0,0,0,.06.05.14.09.24.13-.04,3.25-.1,8.18-.11,8.48,0,.03,0,.06,0,.08,0,.14,0,.4.1.58.03.07.06.09.06.09,0,0-1.1,0-2.62,0Z" style="fill: #231f20;"/>
        <g>
          <path d="m104.38,89.88c-.07-.18-.22-.25-.32-.25-.07,0-.08-.01-.21-.06-.12-.04-.12-.17-.31-.14-.11.02-.14.19-.2.26-.09.12-.16.17-.24.05-.07-.12-.33.04-.33.25,0,.12,0,.25,0,.25,0,.15-.16.08-.34.12-.09.02-.14.05-.19.09-.1.05-.25.1-.31.04-.05-.04-.08-.09-.11-.12-.02-.05-.04-.1-.07-.16-.08-.19-.07-.31-.12-.75-.05-.44-.16-.85-.24-1.43-.08-.58-.2-1.15-.2-1.44s-.05-.59-.01-.88.11-.49.09-.73c-.01-.24,0-.37.03-.63.03-.25.08-.7-.12-1.39-.18-.63-.55-.95-.81-1.07.09,0,.21-.04.29-.16.07-.11.06-.31.05-.43-.01-.12-.02-.38.13-.44.15-.06.12-.18.09-.31.06-.06.09-.13.08-.18s-.04-.32.11-.33.39.04.45-.14-.03-.34-.09-.52-.33-.72-.38-.86c-.05-.14-.06-.31-.04-.41s.06-.2.03-.29-.05-.5-.04-.73-.05-.62-.13-.8c-.08-.18-.06-.18-.06-.26s.04-.34-.24-.67c-.28-.33-.78-.78-1.78-.94-1-.16-1.98.16-2.39,1.02-.41.87-.35,1.18-.4,1.24,0,0-.15-.01-.39-.02-.24,0-.59.32-.76.63-.25.48-.04.54-.42.75-.16.08-.18.16-.19.25.16-.2.24-.23.3-.2.06.03-.1.13-.17.18-.07.05-.2.14-.28.5-.04.15-.2.2-.36.34-.16.14-.84.36-.72,1.4,0,.08.04.32-.12.48-.09.09-.31.37-.37,1.06-.04.42-.02.74-.04.99-.21.19-.34.43-.41.66-.15.07-.3.07-.38-.03.07.11.18.19.32.23,0,.03,0,.06-.01.09-.03.2-.03.38-.03.49.01.34-.03.58-.07,1-.03.3-.07.73-.09.95-1.79.07-3.8.08-5.86-.08,0,0,.67,3.51.87,6.29.03.39.05.75.08,1.1-.86.01-1.16.08-1.25.33-.09.25-.03.5.18.66.2.16,1.06.36,1.15.38.07,1.31.08,2.18.09,2.7.01.8-.06,2.37.62,2.52.36.08,1.31.24,2.54.37,0,.71.07,10.88,0,11.51-.04.38-.12.51-.17.55h0s0,0,0,0c-.04.03-.07.01-.07.01l-3.92-.03c-.2,0-.38.01-.39.39-.01.47.35.41.35.41,0,0,15.89.06,16.02.06s.51-.03.64-.15c.43-.41.41-1.48.41-1.48,0,0-.04-11.04-.07-14.97.22-.03.45-.08.48-.22.05-.2-.02-.97-.12-1.54s-.42-.73-.42-.73c0,0-1.2-.59-1.52-.71-.18-.07-.32-.17-.56-.26.28.09.62.13.86.03.39-.17,1.7-.68,2.01-.88.31-.2.63-.58.73-.75.09-.17.18-.32.15-.56-.01-.08-.03-.16-.04-.24,0,0,0-.02,0-.03.03-.06.06-.16.11-.29.09-.3-.04-.57-.11-.68-.06-.11-.15-.07-.24-.27Zm-4.84,2.04c.26.44.67,1.27.93,1.44.06.04.14.08.24.12-.13-.04-.3-.08-.5-.12-.45-.08-.67.11-.78.27,0-.01,0-.02,0-.04,0-.03,0-.06,0-.09,0-.18,0-.4,0-.5,0-.02,0-.05,0-.07,0-.3.02-.64.12-1.02Zm-4.32,20.88c0-.13,0-.32.03-.37.05-.09.21-.08.41,0,.19.07.42.23.63.39-.35,0-.71,0-1.08-.01Zm.75-5.57c-.21.21-.37.35-.39.62-.02.28.07.46.11.56,0,0,0,.01,0,.02-.17.71-.31,1.1-.45,1.3l-.27.37-.12.02s-.77.78-.35,1.91c.06.23.06.41.07.65,0,.04,0,.08,0,.11-1.9-.02-3.71-.05-3.88-.06.02-.04.04-.08.05-.14.03-.1.06-.26.07-.45,0-.07,0-.1,0-.1.01-.21.01-.38.01-.38l-.05-10.9c.98.09,2.1.15,3.22.13,1.07-.02,2.07-.06,2.94-.12.23.12.57.31.75.4.28.14.3.27.28.34-.04.06-.09.13-.14.21-.2.3-.9.97-1.52,3.94-.13.6-.24,1.13-.33,1.58Zm6.57,4.47c0,1.16-.33,1.09-.33,1.09,0,0-2.03.04-2.25.04-.05,0-.13,0-.23,0-.04-.06-.11-.14-.22-.22-.34-.24-1.07-1.01-1.33-1.27-.25-.27-.64-.8-.72-1.07-.05-.16-.12-.35-.05-.77.28.18.57.31.98.31.59,0,1.57-.57,1.25-1.07-.14-.31-.47-.41-.83-.56-.25-.11-.54-.33-.71-.6.49-1.04.91-1.66,1.79-3.11.85-1.42,1.81-2.93,1.97-4.09,0,.01,0,.02,0,.02,0,0,.04-.08.08-.2h.5c.03,4.3.08,10.74.08,11.5Zm-.61-16.08c.13.14.17.69.2,1.06.02.22.15.31.3.35,0,.6.01,1.54.02,2.65l-.37.03h0s0-.04,0-.06c.02-.36-.27-1.06-.59-1.35,0,0,0,0-.01-.01-.12-.12-.25-.22-.4-.31-.3-.21-.6-.4-.6-.4,0,0-.07-.22-.23-.75-.16-.53-.54-1.56-.67-1.87-.05-.11-.08-.27-.1-.44.09.03.42.16.82.3.5.21,1.53.68,1.64.8Z" style="fill: #231f20;"/>
          <path d="m91.73,83.67s-.02-.03-.02-.04c0,.01.01.03.02.04Z" style="fill: #231f20;"/>
        </g>
        <g>
          <path d="m125.46,90.22c-.04-.09-.06-.14-.07-.17,0,.03.03.09.07.17Z" style="fill: #231f20;"/>
          <path d="m130.24,89.17s.05-.07.06-.11c.03-.08,0-.01-.06.11Z" style="fill: #231f20;"/>
          <path d="m125.39,90.05s0-.02,0-.02c0,0,0,0,0,.02Z" style="fill: #231f20;"/>
          <path d="m142.89,94.92c-.26-.04-.86-.06-.86-.06,0,0-.01,0-.03,0,.13-1.32.31-2.76.46-3.61.23-1.32.55-3.23.58-3.75-.28.05-.74.08-1.32.08-.01-.09-.03-.17-.04-.25-.12-.63-.47-2.5-.69-3.33-.22-.83-.35-1.17-.67-1.58-.32-.41-.82-.73-1.12-.92-.3-.19-.59-.14-1.02-.25-.43-.12-.89-.36-1-.37-.11-.02.03-.33-.18-.59,0-.01-.02-.02-.03-.03.28-.42.52-1.21.7-2.45.2-1.3.23-1.85-.53-3.22-.76-1.37-1.81-1.05-1.94-.93-1.4-.66-2.58,1.42-2.88,2.11-.3.69-.03,1.31-.03,1.36s-.02.03-.07.29c-.02.11-.11.24-.03.42.03.06.07.25.03.35-.03.1-.05.2-.02.31.03.11.07.07-.05.44-.12.37-.01.87.08,1.15.09.29.23,1,.23,1-.12.05-.25.11-.4.2-.36.22-1.11.61-1.52.88-.42.27-.78.59-.86.73-.08.14-.11.42-.27.61-.16.19-.53.59-.97,1.29-.45.7-.71,1.22-1.01,1.73s-.63,1.27-.86,1.46c-.23.19-.73.41-.85.53-.12.12-.18.58-.23.88-.05.31-.13.42-.07.61.03.07.05.15.09.22,0-.01-.01-.03-.02-.04.04.08.1.19.2.34.07.1.19.18.34.25.08.04.17.07.27.09.37.1.8.13,1.03.12.13-.01.3-.04.46-.07.27-.04.52-.09.63-.15,0,0,0,0,0,0,.04-.01.07-.02.09-.03.11-.05.31-.53.4-.68,0-.01.02-.03.03-.04.1-.05.28-.09.46-.13.07-.01.15-.03.23-.05.25-.07.51-.47.64-.69-.02.03-.04.05-.07.08.14-.24.26-.49.32-.61.07-.14.1.13.11.48-.26,1.99-.49,4.58-.5,5.31,0,.01,0,.02,0,.04-.15.02-.27.04-.35.07.04-.06.05-.13-.03-.25-.18-.29-.85-.2-1.16-.12-.31.08-1.5.42-2.01.71-.51.29-.55,1.38-.57,1.73-.01.36-.01.59.05.63.02,0,.08.01.15.01-.07,3.18-.26,14.92-.26,14.92.04,1.7.77,1.46,1.19,1.48.24,0,14.97.07,15.32.08.35.02.51-.1.49-.44-.03-.34-.46-.34-.46-.34,0,0-3.39,0-3.74-.03-.2-.08-.18-1.26-.18-1.26l.05-10.29c.28-.02.46-.03.53-.04.51-.05,2-.03,2.35-.71.35-.68.26-2.29.34-3.77.02-.38.06-.84.1-1.34.2,0,.31,0,.34,0,.24,0,.59.06.73-.03.18-.1.18-.53-.11-.58Zm-16.17,2.31s.02,0,.02,0c.26-.03.22-.07.23-.37,0-.2.01-.48.02-.69.02-.02.04-.04.07-.06.04-.02.08-.04.11-.06.15-.1,1.78-.61,2.31-.75.14-.04.29-.06.42-.09-.2.66-.24,1.12-.2,1.43-.3.35-.83.66-1.11.98-.28.32-1.17,1.28-1.42,1.56-.28.32-.4.48-.47.78,0,.04-.02.09-.02.14.02-1.33.03-2.38.03-2.87Zm2.94,13.34c-.09.12-.65.61-.96.9-.31.29-.65.59-.5.98.06.16.17.3.27.41-.99,0-1.66,0-1.71,0-.01,0-.02,0-.03,0-.03-.01-.06-.04-.09-.07-.06-.09-.08-.24-.09-.37,0-.03,0-.05,0-.05,0,0,0,0,0,0,0-.1,0-.17,0-.17,0,0,.08-6.69.13-11.22.01.17.04.35.07.54.13.7.54,1.78.9,2.38.36.59,1.04,1.24,1.28,2.07.17.59.49,1.55.81,2.34-.07.07-.11.1-.11.1,0,0-.05.13.08.56.13.47.36.97.36.97,0,.12-.32.51-.42.63Zm2.12,1.27c-.13.37-.3.63-.47.83-.08.09-.13.15-.16.21-.07,0-.13,0-.2,0,.03-.07.06-.15.08-.24.08-.31.03-.29.2-.65.08-.16.19-.36.3-.56.04.04.09.03.17-.07l.2-.25s0,.36-.13.73Zm1.86-10.43l-.02.08c-.18.67-1.02,1.72-1.1,2.09-.03.17-.19.44-.36.7-.02-.05-.05-.11-.07-.16-.2-.42-.61-1.48-.89-1.75s-.38-.41-.27-.64c.08-.18.53-.31.79-.46.63.06,1.28.1,1.92.13,0,0,0,0,0,0Zm.18,11.48c.05-.14.15-.41.21-.61.24-.03.39-.03.66-.27.27-.24.54-.48.55-.61.01-.14-.19-.71-.27-.95-.08-.24-.36-.75-.4-.93-.04-.19-.05-.49-.23-.56-.18-.07-.24-.15-.35-.32-.11-.17-.08-.46.07-.65s.24-.39.07-.51c-.02-.01-.04-.03-.07-.07.03-.07.05-.13.11-.22l.02-.03s0,0,0,0c.03-.05.07-.11.12-.19.3-.42.39-.51.66-.93.23-.36.41-.5.74-.96.12-.16.25-.34.37-.51.07-.12.14-.21.2-.29.2-.27.33-.41.4-.58.02-.03.03-.07.05-.1.08-.13.21-.36.37-.62.02-.03.04-.06.06-.09.12-.17.55-.96.73-1.48.06,0,.13,0,.18,0,0,.45-.05,9.03-.06,10.06-.01,1.05.11,1.46.11,1.46,0,0-1.98,0-4.28-.02Z" style="fill: #231f20;"/>
        </g>
        <path d="m158.33,87.65c-.01-.34-.09-.7-.11-1.04,0-.06,0-.13,0-.21.01-.14,0-.33-.02-.5,0-.11,0-.17-.01-.17,0-.04,0-.08,0-.11,0-.19-.05-.95-.53-1.32-.48-.37-.87-.87-1.13-.92-.26-.05-.27-.11-.47-.25-.19-.14-.51-.41-.83-.5-.32-.09-.51-.11-.58-.2-.07-.09-.23-.42-.31-.47s-.24-.48-.35-.62c-.05-.07-.11-.14-.21-.21,0-.18.02-.31.03-.53.06.08.21-.27.3-.52.09-.25.11-.66.15-1.07.04-.41-.09-.42-.13-.39s.01-.28.05-1.15c.04-.87-.46-1.91-1.12-2.37-.67-.46-1.21-.05-1.3.06-.49-.14-.78.17-.92.38-.14.22-.26.53-.57.99-.3.46-.29.89-.34,1.15-.05.25.04.66.08.95.04.29.1.51.1.51,0,0-.06.19-.12.34-.06.15-.02.2.06.27s.05.15.05.15c-.02.22-.05.46-.01.69.04.23.09.57.13.99s.27.78.27.78c0,0,0,0,0,0-.03.02-.07.03-.13.04-.2.04-1.3.29-1.63.34-.32.05-.94.08-1.15,1.25-.04.36-.03.57-.13.65-.1.08-.32.18-.52.55-.19.37-.23.52-.26.78-.03.25-.11.36-.21.5-.1.14-.08.25-.14.33s-.27.18-.39.37c-.12.19-.35.43-.56.64-.2.2-.23.47-.29.65-.03.09-.12.2-.22.28-.04.01-.17.06-.36.16-.17.1-.27.22-.36.3,0,0,0,0-.01,0,0,0-.01,0-.02.01,0,0-.02.01-.03.02-.01,0-.03.02-.04.02-.09.04-.28.05-.39.05s-.24-.03-.33.08c-.02.02-.04.04-.07.06,0,0,0,0,0,0-.06-.06-.17-.16-.24-.24-.11-.12-.26.03-.36.17-.07.09-.09.43-.08.66-.02.03-.03.05-.05.08-.11.18-.18,1.18-.2,1.47,0,0-.02.04,0,.08,0,0,.12,0,.26,0,.19.05.45.14.61.19.25.1.6.19.75.2.18.01.87.25,1.03.28.11.02.58.08.94.07.1,0,.18,0,.24-.01.25-.04.52-.49.61-.65.14-.18.31-.36.31-.36l-.11,2.03c-.02.28-.05.53-.07.72-.04.28-.1.59-.16.89-1.13.2-3.19.57-3.71.74-.73.24-.89,1.36-.88,1.8,0,.31.21.34.32.34,0,0,0,.01,0,.01,0,0,0,.2,0,.56-.05.05-.11.1-.16.16-.38.39-.95,1.22-.34,3.13.08.24.16.51.24.79.08.3.16.63.25.95-.01,3.4-.02,7.21-.02,7.94,0,.04,0,.07,0,.11-.34-.03-.73,0-.74.3-.08.05-.12.17-.12.23,0,.05.38.66,1.06,1.02.24.56.63.77.95.8.32.03,4.07.01,4.84-.01.77-.03,3.42-.06,3.88-.08s7.29.13,7.57.11c.27-.01.56-.03.54-.42s-.41-.37-.41-.37c0,0-6.04-.03-6.53-.01-.12,0-.21-.09-.28-.21-.01-.02-.02-.04-.03-.07,0,0,0,0,0,0-.18-.37-.18-1-.18-1l-.03-9.51h-.02c.47-.04.95-.1,1.42-.2,1.86-.39,2.08-.27,2.39-.29.08,0,.21-.02.37-.03.38-.01.75-.05,1.04-.12.06,0,.1-.01.1-.01,0,0-.01,0-.04,0,.13-.04.24-.09.32-.15.54-.41.61-1.63.59-3.43,0-.6.03-1.21.08-1.8.67.05,1.12.08,1.16.08.16,0,.37-.06.36-.39-.01-.33-.22-.28-.49-.32-.06,0-.42-.04-.95-.07.36-3.12,1.28-5.83,1.64-6.79-.85-.02-1.69-.05-2.49-.1-.01-.29-.04-.83-.05-1.07Zm-15.32,10.21c0-.28.05-.49.11-.66,0-.02.01-.03.02-.05.08-.17.22-.45.61-.54.25-.03,1.31-.17,2.51-.32-.02.03-.03.06-.05.1-.91.45-2.41,1.17-2.67,1.3-.16.08-.34.19-.53.32,0-.06,0-.11,0-.15Zm2.24,12.52c-.07.1-.09.06-.24.18-.15.11-.68.53-1.16.71-.29.1-.59.2-.87.25,0-1.11,0-3.67.01-6.27.05.13.09.24.13.32.02.05.04.09.06.14.12.32.22.63.28.84,0,0,0,.02,0,.02.04.17.07.32.1.45.03.14.1.3.17.46.01.03.02.06.04.08.12.24.32.7.5,1.26s.46,1.49.46,1.49c0,0,.19-.03.46-.14l.18-.05s-.06.15-.13.25Zm1.46-5.18s-.78-1.92-.88-2.2c-.1-.28-.26-.66-.36-.97-.06-.2-.09-.51-.1-.88.03,0,.06,0,.07,0,.03.04.05.07.08.1.04.05.08.09.12.14.14.17.3.31.47.44.02.02.05.04.07.06.19.17.4.32.51.63.11.31.05.48.24.59.02.01.04.03.07.04.04.03.09.06.13.09-.08.35-.19.82-.27,1.22-.05.2-.08.35-.1.46-.03.16-.05.27-.05.27Zm.72,6.42c-.07.29-.18.57-.27.71s-.28.31-.28.31c0,0-.1-.11-.03-.31.07-.19.18-.46.1-.74-.08-.28-.04-.15.06-.41.1-.25.11-.52.15-.67.04-.15.14.13.22.27s.12.55.05.84Zm2.83,1.53c.14-.18.34-.43.39-.5.08-.11.16-.23.07-.37-.09-.14-.02-.12-.1-.38-.07-.25-.55-1.19-.82-1.53-.23-.29-.36-.51-.53-.36-.05.05-.5-.64-.55-.73l.12-.16s-.07-.14-.09-.2.08-.45.24-.98c.16-.53.3-1.2.35-1.38.05-.18.14-.71.23-.97s.43-1.45.54-1.77c.1-.32.05-.52.16-.76.11-.24.57-.5.7-.62.02-.02.04-.04.06-.06.41.02.85.02,1.3,0,0,.28.02,9.07.03,9.64.01.59.18,1.09.18,1.09,0,0-.98.01-2.28.03Z" style="fill: #231f20;"/>
      </g>
      <g>
        <path d="m119.91,53.48c.24-5.77-4.61-10.64-10.83-10.86-6.22-.22-11.47,4.28-11.71,10.05-.22,5.36,3.94,9.94,9.52,10.74l-1.38,4.63,5.51-4.74c4.92-.98,8.69-4.95,8.89-9.82Z" style="fill: #cecece; mix-blend-mode: multiply;"/>
        <path d="m152.89,49.77c.45-10.85-8.66-19.99-20.36-20.42-11.7-.42-21.55,8.04-22,18.89-.42,10.08,7.41,18.67,17.89,20.19l-2.6,8.7,10.36-8.9c9.24-1.84,16.33-9.3,16.71-18.46Z" style="fill: #cecece; mix-blend-mode: multiply;"/>
        <path d="m65.39,54.65c.28-6.78-5.41-12.48-12.71-12.75-7.3-.26-13.46,5.02-13.74,11.8-.26,6.29,4.63,11.66,11.17,12.61l8.5,6.25-3.66-6.37c5.77-1.15,10.19-5.81,10.43-11.53Z" style="fill: #cecece; mix-blend-mode: multiply;"/>
        <path d="m69.33,38.8c.54-12.81,12.16-22.79,25.97-22.29,13.81.5,24.56,11.29,24.03,24.09-.5,11.89-10.56,21.34-23.05,22.24l2.2,10.46-11.31-11.35c-10.69-2.95-18.29-12.33-17.84-23.14Z" style="fill: #cecece; mix-blend-mode: multiply;"/>
        <path d="m109.6,30.87c.18-5.99,5.55-10.71,12.01-10.54,6.45.17,11.54,5.15,11.36,11.14-.17,5.56-4.81,10.02-10.64,10.5l1.09,4.88-5.35-5.25c-5.01-1.33-8.61-5.67-8.46-10.73Z" style="fill: #cecece; mix-blend-mode: multiply;"/>
        <path d="m141.84,58.9c.15-5.12,4.75-9.15,10.26-9.01,5.51.14,9.86,4.4,9.71,9.52-.14,4.75-4.11,8.57-9.09,8.97l.93,4.17-4.57-4.48c-4.28-1.13-7.36-4.85-7.23-9.17Z" style="fill: #cecece; mix-blend-mode: multiply;"/>
        <path d="m158.99,27.6c.44-8.23-6.39-15.24-15.26-15.65-8.87-.41-16.43,5.93-16.87,14.16-.41,7.64,5.45,14.23,13.4,15.46l-2.05,6.58,7.94-6.67c7.03-1.33,12.47-6.93,12.85-13.88Z" style="fill: #cecece; mix-blend-mode: multiply;"/>
        <path d="m29.81,51.29c.16-3.85,3.65-6.85,7.8-6.7,4.15.15,7.38,3.39,7.22,7.24-.15,3.57-3.17,6.41-6.92,6.68l.66,3.14-3.4-3.41c-3.21-.89-5.5-3.7-5.36-6.95Z" style="fill: #cecece; mix-blend-mode: multiply;"/>
        <path d="m46.86,37.8c.34-8.1,7.69-14.41,16.42-14.1,8.73.31,15.54,7.14,15.2,15.24-.31,7.52-6.68,13.5-14.58,14.06l1.39,6.61-7.15-7.18c-6.76-1.87-11.57-7.8-11.28-14.64Z" style="fill: #cecece; mix-blend-mode: multiply;"/>
        <path d="m126.63,63.68c.14-3.25-2.6-5.99-6.1-6.12-3.51-.13-6.46,2.41-6.6,5.66-.13,3.02,2.22,5.6,5.36,6.05l-.78,2.61,3.1-2.67c2.77-.55,4.89-2.79,5.01-5.53Z" style="fill: #cecece; mix-blend-mode: multiply;"/>
        <path d="m182.94,45.58c.37-8.85-7.06-16.29-16.59-16.64-9.53-.34-17.56,6.55-17.93,15.39-.34,8.21,6.04,15.22,14.58,16.45l-2.12,7.09,8.44-7.25c7.53-1.5,13.3-7.58,13.62-15.05Z" style="fill: #cecece; mix-blend-mode: multiply;"/>
        <path d="m88.22,52.88c.25-5.87-4.69-10.82-11.01-11.05-6.33-.23-11.66,4.35-11.9,10.22-.23,5.45,4.01,10.1,9.68,10.92l-1.41,4.71,5.6-4.81c5-1,8.83-5.03,9.04-9.99Z" style="fill: #cecece; mix-blend-mode: multiply;"/>
        <path d="m53.68,38.19c.22-5.34-4.26-9.84-10.02-10.05-5.76-.21-10.6,3.95-10.83,9.3-.21,4.96,3.65,9.19,8.81,9.93l5.21,4.28-1.39-4.38c4.55-.91,8.03-4.58,8.22-9.09Z" style="fill: #cecece; mix-blend-mode: multiply;"/>
        <path d="m168.9,56.91c.16-3.72,3.53-6.62,7.54-6.48,4.01.14,7.14,3.28,6.98,7-.14,3.46-3.07,6.2-6.7,6.46l-3.65,3.04,1-3.3c-3.11-.86-5.31-3.58-5.18-6.72Z" style="fill: #cecece; mix-blend-mode: multiply;"/>
        <path d="m197.66,45.92c.2-4.74-3.78-8.73-8.89-8.92-5.11-.18-9.41,3.51-9.61,8.25-.18,4.4,3.24,8.15,7.81,8.82l-5.2,3.16,8.59-3.24c4.03-.8,7.13-4.06,7.3-8.06Z" style="fill: #cecece; mix-blend-mode: multiply;"/>
      </g>
    </g>
  </g>
</svg>