<?xml version="1.0" encoding="utf-8"?>
<!-- Generator: Adobe Illustrator 25.4.1, SVG Export Plug-In . SVG Version: 6.00 Build 0)  -->
<svg version="1.1" id="Calque_1" xmlns="http://www.w3.org/2000/svg" xmlns:xlink="http://www.w3.org/1999/xlink" x="0px" y="0px"
	 viewBox="0 0 720 720" style="enable-background:new 0 0 720 720;" xml:space="preserve">
<style type="text/css">
	.st0{fill:#F7B658;}
	.st1{fill:#E2A359;}
	.st2{fill:#FFD05A;}
	.st3{fill:#C68A4F;}
	.st4{fill:#FFC552;}
	.st5{fill:#683506;}
	.st6{opacity:0.43;fill:#FFFFFF;}
</style>
<g>
	<path class="st0" d="M432.4,41.3c-5.1,0.3-10.1,5-9.3,10c0.2,1,0.6,2.1,0.4,3.1c-0.4,3.4-5.4,3.8-7.8,6.2c-1.4,1.4-2,3.5-2,5.6
		c-0.1,4.7,2.2,9.3,6,12c6.5,4.7,15.5,3.2,23.3,1.1c3-0.8,6.5-2.3,6.9-5.4c0.3-2.3-1.4-4.9-0.1-6.8c0.6-0.9,1.8-1.3,2.6-2.1
		c2.2-2.1,0.9-5.8-0.6-8.4C447.4,49.4,442.1,40.7,432.4,41.3z"/>
	<path class="st0" d="M537.9,142.6c-4.3,0.3-8.5,0.7-12.8,1.3c-2,0.3-4.2,0.7-5.2,2.3c-0.7,1.1-0.8,2.4-0.8,3.7
		c0,3.5,0.3,7.1,0.9,10.5c0.3,1.8,0.7,3.7,0.1,5.5c-0.6,1.9-2.4,3.6-2.3,5.6c0.1,2.3,2.4,3.8,4.4,4.7c3,1.4,6.1,2.6,9.3,3.5
		c3.5,1,7.2,1.7,10.7,1.1c3.6-0.6,7-2.8,8.4-6.2c1.4-3.4,0-7.8-3.4-9.2c-0.7-0.3-1.5-0.5-1.9-1.2C542.5,158.1,552,141.5,537.9,142.6
		z"/>
	<path class="st0" d="M541.3,215.5c-7-0.4-14.1-0.7-21.1-1.1c-1.7-0.1-3.5-0.2-5.1,0.4c-2.1,0.7-3.7,2.4-5.4,3.8
		c-4.9,4.2-10.9,6.9-17.3,7.8c-1.8,0.2-3.8,0.5-4.9,1.9c-0.5,0.7-0.7,1.6-0.8,2.5c-1.2,8-1.2,16.1,0.1,24.1c0.2,1.1,0.4,2.3,1.1,3.3
		c0.9,1.3,2.5,2.1,4,2.6c8.4,2.9,18.5,3.1,24.2,9.8c2.5,3,3.9,7,7.2,9.1c5.2,3.3,12,0.1,17.3-3.2c2-1.2,4.1-2.5,5.1-4.6
		c1.9-3.7-0.1-8.3,1.1-12.3c0.7-2.4,2.5-4.3,3.2-6.6c2-6.2-3.5-10.6-5.3-15.9C542.6,230.4,542.8,222.5,541.3,215.5z"/>
	<path class="st0" d="M421.8,139c12-3.1,25.8-5.6,35.8,1.7c9.7,7.1,11.7,20.6,15.9,31.9c0.6,1.5,1.3,3.1,2.8,3.7
		c1.2,0.5,2.7,0.1,4,0.3c2.7,0.4,4.6,3.2,4.8,6c0.2,2.8-0.8,5.5-1.9,8c-1.6,4.1-3.3,8.3-6.7,11c-4.9,4-12.3,4-17.1,8.2
		c-4.2,3.7-5.8,10.1-10.6,13c-4.7,2.8-10.8,1.2-16.1-0.4c-1.4-0.5-2.9-0.9-3.9-2.1c-2.4-2.7-0.4-6.9,0.5-10.4
		c1.6-5.9-0.6-12.7-5.4-16.6c-6.8-5.5-17.6-5.2-23.2-11.9c-7.5-9,1.6-15.6,3.8-23.9C407.7,146.4,409.4,142.2,421.8,139z"/>
	<g>
		<path class="st1" d="M441.6,79.9c3-0.8,6.5-2.3,6.9-5.4c0.3-2.2-1.3-4.7-0.2-6.6c-7.4,1.9-15.7,2.9-21.8-1.5c-3-2.1-5-5.5-5.8-9
			c-1.8,1.4-4.7,2.1-6.4,3.8c-1.4,1.4-2,3.5-2,5.6c-0.1,4.7,2.2,9.3,6,12C424.9,83.5,433.8,82,441.6,79.9z"/>
		<path class="st1" d="M422.5,48.9c2.5-2.4,7.4-2.8,7.8-6.2c0-0.2,0-0.5,0-0.7c-4.2,0.6-8.1,3.9-8.6,7.9
			C421.9,49.5,422.2,49.2,422.5,48.9z"/>
	</g>
	<path class="st1" d="M540.9,181.4c3.6-0.6,7-2.8,8.4-6.2c0.8-2,0.6-4.3-0.3-6.2c-3.5,0.6-7.2-0.1-10.7-1.1
		c-3.2-0.9-6.3-2.1-9.3-3.5c-2.1-1-4.3-2.5-4.4-4.7c-0.1-2,1.7-3.7,2.3-5.6c0.6-1.7,0.2-3.6-0.1-5.5c-0.3-1.5-0.4-3-0.6-4.5
		c-0.8,0.1-1.6,0.2-2.5,0.3c-2,0.3-4.2,0.7-5.2,2.3c-0.7,1.1-0.8,2.4-0.8,3.7c0,3.5,0.3,7.1,0.9,10.5c0.3,1.8,0.7,3.7,0.1,5.5
		c-0.6,1.9-2.4,3.6-2.3,5.6c0.1,2.3,2.4,3.8,4.4,4.7c3,1.4,6.1,2.6,9.3,3.5C533.7,181.4,537.3,182,540.9,181.4z"/>
	<path class="st1" d="M539.3,277.1c2-1.2,4.1-2.5,5.1-4.6c1-2,0.9-4.2,0.8-6.5c-4.9,2.7-10.6,4.7-15.1,1.9c-3.3-2.1-4.7-6.1-7.2-9.1
		c-5.7-6.8-15.9-6.9-24.2-9.8c-1.5-0.5-3.1-1.2-4-2.6c-0.6-1-0.9-2.1-1.1-3.3c-0.9-5.4-1.2-11-0.9-16.5c-0.6,0.1-1.1,0.2-1.7,0.3
		c-1.8,0.2-3.8,0.5-4.9,1.9c-0.5,0.7-0.7,1.6-0.8,2.5c-1.2,8-1.2,16.1,0.1,24.1c0.2,1.1,0.4,2.3,1.1,3.3c0.9,1.3,2.5,2.1,4,2.6
		c8.4,2.9,18.5,3.1,24.2,9.8c2.5,3,3.9,7,7.2,9.1C527.2,283.6,534,280.4,539.3,277.1z"/>
	<path class="st1" d="M447.4,223.5c4.8-2.9,6.3-9.3,10.6-13c4.8-4.2,12.2-4.2,17.1-8.2c3.4-2.8,5.1-7,6.7-11c0-0.1,0.1-0.2,0.1-0.4
		c-4.9,3.1-11.4,3.5-15.8,7.3c-4.2,3.7-5.8,10.1-10.6,13c-4.7,2.8-10.8,1.2-16.1-0.4c-1.4-0.5-2.9-0.9-3.9-2.1
		c-2.4-2.7-0.4-6.9,0.5-10.4c1.6-5.9-0.6-12.7-5.4-16.6c-6.8-5.5-17.6-5.2-23.2-11.9c-7.5-9,1.6-15.6,3.8-23.9
		c0.3-1.2,0.6-2.2,0.9-3.3c-5.4,3-6.9,7.5-9.1,15.6c-2.2,8.3-11.3,14.8-3.8,23.9c5.6,6.8,16.4,6.4,23.2,11.9
		c4.8,3.9,7,10.6,5.4,16.6c-0.9,3.5-2.9,7.7-0.5,10.4c1,1.1,2.5,1.6,3.9,2.1C436.6,224.7,442.7,226.3,447.4,223.5z"/>
	<path class="st2" d="M390.8,131.6c2.1,9.8-0.4,20.1,0.7,30.1c1.4,12.2,8,23.4,16.6,32.2c1.6,1.7,3.4,3.4,4.2,5.6
		c0.9,2.8,0.2,5.7-0.1,8.6c-1.5,15.3,10.4,28.8,12.6,44c1.3,8.7-0.6,17.5-0.6,26.3c0.1,8.8,2.9,18.5,10.6,22.8
		c5.7,3.2,13.4,3,17.5,8c1.8,2.2,2.6,5.1,3.4,7.8c2.3,8.5,4.5,17.1,6.8,25.6c2.8,10.6,6.5,22.2,16.1,27.5
		c15.9,8.7,38.9-5.4,52.5,6.5c2.7,2.4,5,5.8,8.5,6.5c6.2,1.2,10.3-6.1,15.6-9.6c5.1-3.4,11.6-3.1,17.7-2.5
		c9.4,0.9,18.6,2.4,27.8,4.6c3.8,0.9,7.6,1.9,10.8,4.1c6.6,4.6,8.9,13.4,8.3,21.3c-2,23.3-25.3,39.8-48.5,43.1
		c-23.1,3.3-46.3-3.1-69.3-7.4c-28.5-5.4-58.6-7.8-83.6-22.6c-31.8-18.8-49.8-54.8-58.8-90.6c-9-35.9-10.6-73.2-19-109.2
		c-5.5-23.8-14.1-47.3-14-71.8c0-6.3,0.7-13,4.4-18.1c8.6-11.9,22.7-9.1,34.7-9.8C377.9,113.8,387.5,115.9,390.8,131.6z"/>
	<path class="st0" d="M318.5,690.5c28.1-1.5,54.5-13.8,82-19.8c46-10,98.6-3.5,135.4-32.8c18.4-14.7,29.7-36.2,40.5-57.1
		c26.7-51.8,54.2-107.4,48.4-165.5c-1-9.4-2.8-18.7-4.8-27.9c-3.7,3.2-7.3,6.5-10.6,10.1c-5.4,6.1-10.2,15.4-18.9,17.2
		c-7.3,1.5-15.4-4.1-21.7-6.9c-8.8-3.9-19.4-2.7-28.8-2.9c-21.6-0.3-41.8-3.8-60.4-15.3c-16-9.9-31.4-22.7-42.8-37.7
		c-5-6.6-9-13.8-11.5-21.7c-3.2-9.9-4.1-20.6-5.6-30.8c-3-19.8-4.7-41.2-13.7-59.5c-7.7-15.6-18.7-29.2-27.2-44.3
		c-8.6-15.2-14.2-32-11.2-49.6c1.8-10.6,6.2-20.6,9.9-30.8c-3.6-1.4-7.2-2.8-10.8-4c-44.5-15.2-93.4-8.2-139,3
		c-36.8,9-76.7,23.7-93.6,57.5c-9.1,18-10.1,39-16.7,58c-5,14.3-13,27.3-20,40.8c-48.8,94.5-41.1,215.6,19.3,303.1
		c7,10.1,14.9,20.1,25.3,26.6c11.5,7.3,25.4,9.9,37.8,15.5c29.3,13.2,48.7,41.8,76,58.7C274.3,686.1,296.6,691.7,318.5,690.5z"/>
	<path class="st1" d="M400.5,670.7c34.1-7.4,71.8-5.8,104.1-16.4c-1.6,0-3.1-0.1-4.7-0.2c-26.2-1.3-52.5-5.7-78.5-2.1
		c-43.5,6.1-87.2,34.5-128.1,18.5c-29.6-11.6-46.2-43-72.1-61.5c-10.7-7.7-23.7-13.8-29.5-25.6c-5.8-11.8-3.2-27.2-11.5-37.4
		c-10.2-12.6-30.4-10.1-43.8-19.2c-6.7-4.6-11.1-11.7-14.6-19c-10.7-22.2-14.5-47.6-10.7-71.9c4.8-30.6,21.1-59.2,21.2-90.2
		c0.1-24.8-9.7-52.1,4.1-72.6c4.6-6.9,11.5-12,16.5-18.7c17.1-22.9,7.5-55.8,15.5-83.2c6.6-22.8,25.2-40.5,46.3-51.4
		c4.9-2.5,10.4-4.5,16.2-6.3c-1.1,0.3-2.2,0.5-3.3,0.8c-36.8,9-76.7,23.7-93.6,57.5c-9.1,18-10.1,39-16.7,58
		c-5,14.3-13,27.3-20,40.8c-48.8,94.5-41.1,215.6,19.3,303.1c7,10.1,14.9,20.1,25.3,26.6c11.5,7.3,25.4,9.9,37.8,15.5
		c29.3,13.2,48.7,41.8,76,58.7c18.7,11.5,40.9,17.2,62.9,16C346.6,689,373,676.7,400.5,670.7z"/>
	<g>
		<path class="st3" d="M211,118.8c-5.5,4-10.7,8.5-15.3,13.5c5.9-4.8,12.4-9,19.1-12.5c4.9-2.5,10.4-4.5,16.2-6.3
			c-1.1,0.3-2.2,0.5-3.3,0.8C222.1,115.7,216.5,117.2,211,118.8z"/>
		<path class="st3" d="M318.5,690.5c28.1-1.5,54.5-13.8,82-19.8c34.1-7.4,71.8-5.8,104.1-16.4c-1.6,0-3.1-0.1-4.7-0.2
			c-7.5-0.4-15-1-22.6-1.6c-22.1,2.8-45.1,3.9-66.6,8.6c-27.5,6-53.9,18.3-82,19.8c-21.9,1.2-44.2-4.5-62.9-16
			c-27.3-16.8-46.7-45.4-76-58.7c-12.4-5.6-26.2-8.2-37.8-15.5c-10.4-6.6-18.3-16.5-25.3-26.6c-60.4-87.5-68.1-208.7-19.3-303.1
			c7-13.5,15-26.5,20-40.8c6.6-19.1,7.7-40,16.7-58c3.2-6.3,7.1-11.9,11.7-17c-9,7.2-16.6,16-21.9,26.5c-9.1,18-10.1,39-16.7,58
			c-5,14.3-13,27.3-20,40.8c-48.8,94.5-41.1,215.6,19.3,303.1c7,10.1,14.9,20.1,25.3,26.6c11.5,7.3,25.4,9.9,37.8,15.5
			c29.3,13.2,48.7,41.8,76,58.7C274.3,686.1,296.6,691.7,318.5,690.5z"/>
	</g>
	<path class="st1" d="M525.8,564.4c-5.9,0.5-11.4-3.1-15.5-7.3c-4.1-4.3-7.3-9.4-11.5-13.5c-1.1-1.1-2.3-2.1-3.8-2.3
		c-1.6-0.2-3.1,0.5-4.5,1.2c-5.6,2.9-11.1,6.1-17.2,7.5c-6.1,1.4-13.2,0.5-17.6-3.9c-4.1-4.1-5.1-10.5-4.1-16.2
		c1-5.7,3.8-10.9,6.6-16c-4.5,6.4-8.7,13.2-10.5,20.8c-1.8,7.6-1.1,16.1,3.5,22.4c4.6,6.3,13.6,9.6,20.7,6.5c1.8-0.8,3.5-2,5.4-2.3
		c3.2-0.5,6.4,1.7,8.2,4.4c1.8,2.7,2.6,5.9,3.7,9c2.2,6.3,6,12.4,11.8,15.7c9.2,5.2,21.3,1.7,29.1-5.4c7.8-7.1,12.2-17.1,16.2-26.9
		c5.9-14.4,12.1-30.6,9.6-46.5C549.7,526.9,547.5,562.6,525.8,564.4z"/>
	<path class="st1" d="M266.1,192.6c1.2,1.3,2.4,2.8,2.7,4.5c0.5,2.1-0.3,4.2-1.1,6.2c-2.3,6-4.7,12.1-7,18.1c-1,2.7-2.2,5.5-4.5,7.3
		c-1.9,1.4-4.3,2-6.2,3.5c-2.2,1.8-3.1,4.7-3.4,7.6c-1.2,11.3,6.7,22.8,17.7,25.7c1.8,0.5,3.9,0.7,5.4-0.4c1.2-0.8,1.8-2.2,2.5-3.4
		c3.9-6.5,13.3-8.8,19.7-4.9c-2.6-1.3-5.9-0.2-8.2,1.7c-2.2,1.9-3.8,4.5-5.6,6.8c-4.6,5.6-11.3,9.4-18.4,10.4c-3.4,0.5-7,0.3-10-1.4
		c-2.4-1.4-4.2-3.6-6.1-5.7c-4.9-5.2-10.9-9.4-17.5-12.1c-2.6-1.1-5.4-2-7.4-4c-2-2-2.8-5.6-0.8-7.6c2.8-2.9,9.8-2.3,9.3-6.3
		c-0.2-1.5-1.7-2.5-2.7-3.7c-3.6-4.6,1.1-11.3,6.5-13.5c5.4-2.2,11.7-2.3,16.2-6c2.8-2.3,4.5-5.8,5.4-9.3c1.5-5.9,0.9-12.3-1.7-17.8
		c-3.4-7.1-10.4-12.4-18.1-13.9C250.3,177.6,254.6,179.2,266.1,192.6z"/>
	<path class="st1" d="M219.4,506.7c4.4,6.8,11.8,11.4,19.8,12.3c2.1,0.2,4.5,0.3,6.1,1.8c0.8,0.8,1.4,1.8,1.8,2.9
		c5.9,12.4,11.8,24.8,17.6,37.3c-8.1-9.7-10.1-24.4-20.9-30.9c-2.8-1.7-5.9-2.7-9-3.6c-5.2-1.6-10.5-3.2-15.7-4.9
		c-1.8-0.6-3.7-1.2-5-2.6c-1.2-1.4-1.7-3.2-2.1-5c-5-18.4-18.4-34.3-35.7-42.3c8.6,2.3,21.8,4.3,29,9.8
		C213.1,487.5,214.3,498.9,219.4,506.7z"/>
	<path class="st1" d="M441.1,388.5c-7.2-6.7-11.2-16.9-19.8-21.6c-6.5-3.5-14.4-3.1-21.9-2.6c-8,0.6-16.1,1.1-24.1,1.7
		c11.9,1.1,23.8,2.1,35.8,3.2c1.8,0.2,3.6,0.3,5.1,1.2c2.5,1.4,3.6,4.3,4.8,6.8c4.3,8.6,11.8,15.1,19.1,21.4
		c3.2,2.8,6.6,5.6,10.8,6.6c3.3,0.8,6.8,0.4,10.2,0.1c12.7-1.2,25.2,0.3,37.6,3.2c-9.2-6.2-13.1-9.8-24.4-10.4
		C462.5,397.6,450.5,397.2,441.1,388.5z"/>
	<path class="st4" d="M595.3,495.5c5.9-8.1,6.3-19,5-29c-1.3-10-4-19.8-3.6-29.8c0.4-10.2,4.1-20,5.9-30.1c0.1-0.3,0.1-0.6,0.2-1
		c-3.4,4.2-7.2,8-12.4,9.1c-7.3,1.5-15.4-4.1-21.7-6.9c-2.6-1.2-5.4-1.9-8.2-2.3c2.5,5.3,4.4,10.9,6.3,16.4c2.9,8.5,5.8,17.1,6.9,26
		c2,16.1-2,33.6,5.3,48.1c0.8,1.5,1.7,3,3,4C586.3,503,592.3,499.7,595.3,495.5z"/>
	<path class="st4" d="M395.6,222.4c-4.7-7.3-9.7-14.4-14.2-21.9c-4.1-1.8-8-3.9-10.9-7.8c-11.8-15.7-4.2-37.8-20.9-52.3
		c-5.2-4.5-11.6-7.3-18.1-9.6c-19-6.7-39.4-9.5-59.5-8c-5.6,0.4-11.3,1.2-16,4.2c-6.1,3.9-10,11.3-17,13.2c-2.7,0.7-5.9,0.6-7.9,2.6
		c-3.2,3.2-0.1,9.2,4.3,10.5c4.4,1.3,8.9-0.4,13.3-1.8c9.9-3,20.3-4.1,30.6-3.2c6,0.5,12.7,2.1,16,7.2c3.3,5.2,2,11.9,0.6,17.9
		c-2.2,9.8-3.5,21.3,3.2,28.8c4.8,5.4,12.4,7,18.9,10.2c11.1,5.5,19.4,16,31.1,20c11.6,4,24.5,0.8,36.1-3.4
		C389,227.6,393,225.3,395.6,222.4z"/>
	<path class="st5" d="M347,221.1c-1-8-5-15.9-11.9-20c-4.8-2.9-10.6-3.7-16.2-3.5c-4,0.1-7.9,0.8-11.5,2.5c-11.1,5.3-15,19-23.4,28
		c-3.1,3.4-7.1,6.5-7.8,11.1c-0.5,3.2,0.9,6.3,2.2,9.2c4,8.6,9.4,17.8,18.6,20.1c6.8,1.7,13.8-0.9,20.2-3.6
		C336.6,256.8,350,243.6,347,221.1z"/>
	<path class="st5" d="M193.8,357.1c13.1,0.9,25.1,8.8,32.8,19.5c7.7,10.7,11.3,23.9,12.1,37c0.7,11.6-1.4,24.8-11,31.3
		c-10.2,6.9-26.3,1.4-30.2-10.2c-2-6.1-1.4-13.5-5.9-18c-4.9-4.9-13-3.6-19.7-5.2c-10.8-2.6-18.3-14.1-17.1-25.1
		C156.4,371.3,179.2,356.1,193.8,357.1z"/>
	<path class="st5" d="M371.7,405.3c-6.3-2.7-14.5,0.2-17.6,6.3c-3.1,6.1-1.4,13.6-3.6,20.1c-2.1,6.4-7.7,11-12.1,16.2
		c-4.3,5.2-7.5,12.8-4.1,18.6c2.8,4.8,9,6.4,14.6,6.4c3.5,0,7-0.5,10.2-1.9c4.7-2.1,8.2-6.1,11.1-10.4
		C377.5,449.5,389.2,412.7,371.7,405.3z"/>
	<path class="st5" d="M363.8,579.3c-7.5-5.1-16.7-6.6-25.5-8.7c-9.7-2.2-19.7-5.6-26.2-13c-2.4-2.8-4.5-6.2-7.9-7.6
		c-2-0.8-4.2-0.9-6.4-0.5c-10.7,1.7-18.2,12.7-18.6,23.6c-0.4,10.8,5,21.2,12,29.4c9,10.5,20.9,18.5,34,22.9
		c7.7,2.6,16.1,3.8,24,1.8C368.5,622,383.7,592.7,363.8,579.3z"/>
	<path class="st5" d="M556.3,461.1c0.1-6.9-3-14.4-9.3-17.4c-5.6-2.7-12.3-1.3-18.5-2c-8.4-0.9-15.8-5.7-24-7.8
		c-4.7-1.2-10.4-1.3-13.6,2.4c-4,4.8-1.1,11.9-0.3,18.1c1.5,11.2-4.8,22.3-3.5,33.6c1.1,9.4,7.9,17.8,16.9,20.9
		c8.9,3.1,19.5,0.5,26.1-6.2c3.2-3.3,5.5-7.4,8.9-10.5C548.8,483.2,556.1,475.4,556.3,461.1z"/>
	<path class="st4" d="M231.1,368c6.7,9.6,9.7,21.3,11.6,32.8c1.1,7,1.9,14.2,1.1,21.3c-0.7,6.1-2.4,12-5,17.5
		c-0.7,1.5-1.5,3.1-0.9,4.7c0.5,1.3,1.8,2.1,3.1,2.6c5.5,1.8,11.3-1.6,15.6-5.6c3.6-3.3,6.8-7.3,8.4-12c3.7-11.4-3.2-23.2-6.8-34.6
		c-2.7-8.6-3.5-17.7-6.7-26.1c-4.8-12.4-16-23.2-29.3-23.7c-3.2-0.1-6.4,0.3-9.6-0.1c-2.9-0.4-5.7-1.6-8.5-1.4
		c-2.9,0.2-5.6,2.5-5.1,5.4C211.7,349.2,223.7,357.4,231.1,368z"/>
	<path class="st4" d="M312.6,542.1c-3.3-3.3-8.2-5.5-12.6-3.9c-3.9,1.4-6.1,5.3-9.2,8.2c-3,2.8-8.5,4.3-10.9,1
		c-0.8-1.1-1.1-2.5-1-3.9c0.2-4.3,3.2-7.8,6.4-10.7c4.6-4.2,10.1-7.6,16.1-9.1c6.1-1.5,12.8-0.8,18,2.6c4.7,3.1,7.7,8.3,12.5,11.3
		c3.5,2.2,7.6,3.1,11.6,4.1s8.1,2.5,11,5.4c2.9,3,4.1,7.9,1.8,11.3c-4.4,6.5-20,4.7-26.3,2.4C321.8,557.6,318.6,548,312.6,542.1z"/>
	<path class="st4" d="M383.7,401.5c6.3,5.1,9.7,13.6,8.6,21.7c-0.5,3.6-1.7,7-1.9,10.6c-0.2,3.6,0.9,7.6,4.1,9.4
		c4.4,2.5,9.9-0.6,13.2-4.4c8.4-9.4,10.6-23.9,5.5-35.4c-5.1-11.5-17.2-19.6-29.8-19.8c-7.7-0.1-15.5,2.4-23,0.6
		c-2.6-0.6-5.1-1.7-7.7-1.5c-5.8,0.5-9.1,8.4-5.9,13.3c4.4,6.6,10.4,3.3,15.7,1.2C369.4,394.5,378.1,396.9,383.7,401.5z"/>
	<path class="st6" d="M374.8,418.3c-1.2-2.8-3.6-5.1-6.5-6c-2-0.7-4.5-0.6-5.8,1c-1.3,1.6-1.1,4-0.1,5.9c0.9,1.8,2.4,3.3,3.5,5.1
		c3.8,6.1,1.9,14,1.3,21.2c-0.1,0.8-0.1,1.6,0.5,2.2c0.6,0.6,1.5,0.5,2.2,0.1c0.7-0.4,1.1-1.2,1.5-1.9
		C374.9,439.1,377.9,425.8,374.8,418.3z"/>
	<path class="st6" d="M337.6,211.9c-3.1-4-8.1-6.5-13.1-6.8c-1.4-0.1-2.8,0-4.1,0.4c-5,1.6-7.2,7.5-11.3,10.7
		c-1.6,1.2-3.5,2.1-4.9,3.5c-1.5,1.4-2.4,3.6-1.5,5.4c0.9,1.8,3.3,2.4,5.2,1.9c1.9-0.5,3.5-1.9,5-3.3c1.6-1.4,3.2-2.8,4.7-4.2
		c1.6-1.4,3.2-2.8,5.2-3.3c4.2-1,8.6,3.3,7.7,7.5c-0.9,4.4-6.3,7.2-6.2,11.7c0.1,3.2,3.4,5.7,6.7,5.5c3.2-0.2,6-2.5,7.6-5.3
		C342.1,229.3,342.1,217.9,337.6,211.9z"/>
	<path class="st6" d="M214,372.7c-3-3.3-6.3-6.3-10.4-8.1c-4.9-2.1-10.8-2-15.6,0.3c-2,0.9-3.9,2.3-5.1,4.2
		c-1.1,1.9-1.4,4.4-0.2,6.3c2.1,3.4,7,3,10.9,3.2c11.4,0.4,21.9,9.3,24.2,20.4c1.4,6.6,0.2,13.5,0.3,20.3c0.1,3.2,0.9,6.9,3.8,8.1
		c2.7,1.1,5.8-0.8,7.1-3.4c1.3-2.6,1.3-5.6,1.2-8.5c-0.2-7.8,0.7-15.3-2.9-22.3C223.6,385.9,219.8,378.5,214,372.7z"/>
	<path class="st6" d="M365.6,596.5c-1.4-4.2-4.6-7.5-8.2-10.1c-2-1.4-4.1-2.6-6.4-3.2c-3.2-0.8-6.6-0.4-9.8-0.4
		c-6.3-0.2-12.6-2.2-17.8-5.9c-2.5-1.8-5.7-4-8.2-2.3c-1.7,1.1-2,3.7-1.3,5.6c0.8,1.9,2.4,3.3,4,4.7c3.5,2.9,7.3,5.8,11.7,7
		c3.2,0.9,6.5,0.9,9.6,1.9c3.1,1,6.2,3.4,6.4,6.7c0.3,4.3-4.2,7.7-4.2,12c0,4.9,6.2,7.8,10.9,6.4
		C360.6,616.3,368.5,605.1,365.6,596.5z"/>
	<path class="st6" d="M538.6,449.7c-1.1,0-2.3,0.2-3.1,1c-0.5,0.4-0.8,1-1,1.6c-0.8,2.4,0.4,5.4,2.6,6.6c0.6,0.3,1.3,0.6,1.8,1
		c1,0.8,1.3,2.2,1.2,3.5c-0.2,3.2-2.5,6.1-5.5,7.1c-1.4,0.4-2.8,0.5-4.2,0.8c-3.5,0.7-6.9,3.1-7.7,6.5c-0.6,2.4,0.2,5.2,2,6.9
		c1.8,1.7,4.6,2.4,7,1.6c3.2-1,5.3-4,7.6-6.4c2.4-2.4,5.4-4.2,7.5-6.8C553,465.7,550.1,449.7,538.6,449.7z"/>
	<path class="st1" d="M336.7,638c-4.2,0.2-8.5-0.3-12.5-1.9c-13-5.1-20.8-21-34.7-22.3c2.8,4.2,7.3,7.1,10.6,11
		c3.9,4.6,5.9,10.5,8.6,16c2.6,5.5,6.3,10.9,11.9,13.2c4.4,1.8,9.5,1.3,14-0.4c4.5-1.6,8.5-4.3,12.5-7c6.6-4.5,13.3-8.9,19.9-13.4
		c1.4-1,3.1-2.4,2.6-4.1c-1.6-5.2-10.5,1.6-12.7,2.9C351,635.7,343.8,637.7,336.7,638z"/>
	<path class="st1" d="M164.4,259.6c1.9,6.7,2,14.2,6.3,19.7c3.2,4.2,8.3,6.4,13.2,8.3c10.4,4.1,21,7.7,31.7,10.9
		c-15.1-2.6-30-6.3-44.6-11.1c-2.2-0.7-4.6-1.6-6.1-3.4c-1.2-1.4-1.8-3.3-2.3-5.2c-1.6-5.3-3.1-10.7-4.7-16
		c-0.3-1.2-0.7-2.5-1.7-3.3c-1.5-1.3-3.8-0.8-5.7-0.3c-7.8,2.2-15.6,4.7-23.2,7.5c1.2-7.7,5.7-14.7,12.1-19.1
		C148.9,241.2,161.5,249.6,164.4,259.6z"/>
	<path class="st6" d="M349.7,181.7c-2.3-8.7-2.9-17.9-6.7-26c-4.9-10.5-15-18-26-21.8c-11-3.8-22.9-4.1-34.5-3.2
		c-0.5,4.5,2.7,8.7,6.7,10.9c4,2.2,8.5,2.9,13,3.8c7.5,1.6,15.1,4.3,20.3,9.9c5.2,5.6,7.3,14.7,3,21c-1.8,2.6-4.7,5-4.6,8.2
		c0.2,4.2,5.2,6.2,9.2,7.6c7.8,2.7,15.1,7.1,21.1,12.8c4.3,4.1,12.4,8.4,9.6-0.7C358.3,196.5,352,190,349.7,181.7z"/>
	<path class="st1" d="M470,581.2c-2.4-0.7-5.1,0.3-7.1,1.8c-2,1.5-3.7,3.5-5.5,5.2c-3.3,3.1-7.5,5.3-12,6.3
		c-1.2,0.3-2.7,0.6-3.1,1.8c-0.3,0.9,0.1,1.9,0.6,2.7c3.8,6.3,12.3,9.2,19.2,6.7c2.3-0.8,4.3-2.1,6.2-3.6c2.3-1.8,4.6-3.8,5.8-6.5
		C476,592,474.9,582.6,470,581.2z"/>
	<path class="st1" d="M495.8,612c-0.6-3.5-2.7-7.4-6.2-7.5c-2.4-0.1-4.5,1.8-5.5,3.9c-1,2.2-1.1,4.6-1.1,7c-0.1,3.2,0.5,7.3,3.6,8.2
		c1.6,0.5,3.3-0.1,4.7-1.1c3.8-2.6,5.5-7.9,4-12.2L495.8,612z"/>
	<path class="st1" d="M233.4,185.6c-3.1-1.1-6.7-1.6-9.8-0.3c-3.1,1.2-5.5,4.4-5.2,7.7c0.2,2.4,1.9,4.5,3.6,6.2
		c3.3,3.2,7.6,5.8,12.2,5.8C249.6,205.2,243.2,189.2,233.4,185.6z"/>
	<path class="st1" d="M193,189.8c0-4.7-2.3-9.4-6-12.3c-0.6-0.5-1.3-0.9-2-1c-0.9-0.1-1.8,0.2-2.6,0.6c-3.5,2.1-4.8,6.5-5.4,10.5
		c-0.6,3.7-0.6,8,2.1,10.6c2.8,2.7,7.8,2.2,10.5-0.5c2.7-2.7,3.3-7.2,1.4-10.5L193,189.8z"/>
	<path class="st1" d="M425.4,633.9c-4.4-4.5-10.2-7.3-14.6-11.7c-9.5-9.6-10.4-24.5-10-38c0.5-13.5,1.6-27.8-5.1-39.5
		c3.3,16.9,2.4,34.6-2.6,51c-1.4,4.7-3.2,9.7-1.9,14.5c2.7,10.1,17.5,14.5,17.5,25c0,4-2.4,7.5-4.7,10.8c-4.2,6-8.3,11.9-12.5,17.9
		C402.6,658.2,445.9,654.8,425.4,633.9z"/>
	<path class="st4" d="M454.1,145.1c-3.7-1.8-7.8-2.5-11.9-2.9c-5.4-0.5-11.3-0.5-15.9,2.5c-4.6,3-6.9,9.9-3.4,14.1
		c2.3,2.8,6.2,3.5,9.7,4.6c6.4,1.9,12.8,6,14.4,12.4c0.5,2,0.5,4.3,1.6,6.1c2.4,3.8,8.3,3.5,11.9,0.8
		C473.1,173.6,466.4,151.1,454.1,145.1z"/>
	<path class="st4" d="M370.1,260.7c-0.9,7.5-1.4,16.2-7.4,20.8c-8.9,6.8-23.1-0.7-32.5,5.3c-6.2,3.9-7.9,12.2-8.2,19.5
		c-0.5,12.3,2.4,26.4,13.1,32.3c12.9,7.2,28.8-1.3,43.5-1.2c8.7,0,17.3,3.2,24,8.8c1.8,1.6,3.9,3.4,6.3,3.1c3.9-0.5,4.6-5.8,3.8-9.7
		c-1.8-9.6-6-18.7-12.2-26.2c-2.5-3-5.4-5.9-6.6-9.7c-5-15.4,11.5-32.6,4.9-48.1C390.9,237.2,372.4,242.6,370.1,260.7z"/>
</g>
</svg>
