<?xml version="1.0" encoding="utf-8"?>
<!-- Generator: Adobe Illustrator 25.4.1, SVG Export Plug-In . SVG Version: 6.00 Build 0)  -->
<svg version="1.1" id="Layer_1" xmlns="http://www.w3.org/2000/svg" xmlns:xlink="http://www.w3.org/1999/xlink" x="0px" y="0px"
	 viewBox="0 0 280 140" xml:space="preserve">
<style type="text/css">
	.st0{fill:#FFBE00;}
	.st1{fill:#AE2673;}
	.st2{opacity:0.25;}
	.st3{fill:#FFFFFF;}
	.st4{opacity:0.2;}
</style>
<g>
	<path class="st0" d="M139.6,101.5c-10,0-19.5-4.3-26.1-11.7c-5.7-6.4-8.9-14.7-8.9-23.4c0-19.3,15.7-35.1,35.1-35.1
		c8.6,0,16.9,3.2,23.4,8.9c7.4,6.6,11.7,16.2,11.7,26.1C174.7,85.8,158.9,101.5,139.6,101.5"/>
	<path class="st1" d="M169.4,66.5c0,3.1-0.5,6.1-1.4,8.9c-3.5,11.2-13.4,19.5-25.4,20.7c-1,0.1-2,0.1-3,0.1
		c-8.8,0-16.7-3.8-22.2-9.9c0,0-0.1-0.1-0.1-0.2c-4.6-5.2-7.4-12.1-7.4-19.7c0-16.4,13.3-29.7,29.7-29.7c7.5,0,14.4,2.8,19.7,7.4
		c0,0,0.1,0.1,0.2,0.1C165.5,49.8,169.4,57.7,169.4,66.5"/>
	<path class="st2" d="M129.9,83.3L142.6,96c12-1.2,21.9-9.5,25.4-20.7l-8.9-8.8L129.9,83.3z"/>
	<polyline class="st3" points="129.9,49.6 159.1,66.5 129.9,83.4 129.9,49.6 	"/>
	<path class="st4" d="M139.6,36.7c-16.4,0-29.7,13.3-29.7,29.7l0,0c0,0,0,0,0,0.1l0,0c0,0,0,0,0,0.1l0,0c0,0,0,0,0,0.1l0,0l0,0l0,0
		l0,0c0,0,0,0,0,0.1l0,0v0.1l0,0c0.1,7.3,2.9,14,7.5,19.1l0.1,0.1c0.1,0.2,0.3,0.3,0.4,0.5l0,0l0,0c0.8,0.9,1.6,1.7,2.5,2.4
		c-4.4-5.2-7-11.9-7-19.2c0-16.4,13.3-29.7,29.7-29.7c7.3,0,14,2.6,19.2,7c-4.9-5.8-12.1-9.7-20.1-10.4l0,0h-0.1l0,0
		c-0.1,0-0.1,0-0.2,0l0,0h-0.1l0,0h-0.1l0,0h-0.1l0,0l0,0l0,0h-0.1l0,0c0,0,0,0-0.1,0l0,0l0,0l0,0c0,0,0,0-0.1,0l0,0c0,0,0,0-0.1,0
		l0,0l0,0c0,0,0,0-0.1,0l0,0l0,0l0,0c0,0,0,0-0.1,0l0,0c0,0,0,0-0.1,0l0,0l0,0l0,0c0,0,0,0-0.1,0l0,0c0,0,0,0-0.1,0l0,0
		c0,0,0,0-0.1,0l0,0c0,0,0,0-0.1,0l0,0c0,0,0,0-0.1,0l0,0c0,0,0,0-0.1,0l0,0c0,0,0,0-0.1,0l0,0h-0.1l0,0c0,0,0,0-0.1,0l0,0
		C139.8,36.7,139.7,36.7,139.6,36.7C139.7,36.7,139.7,36.7,139.6,36.7C139.7,36.7,139.6,36.7,139.6,36.7L139.6,36.7"/>
</g>
</svg>
