<svg viewBox="0 0 1194 813" xml:space="preserve" style="fill-rule:evenodd;clip-rule:evenodd;stroke-linejoin:round;stroke-miterlimit:2" xmlns="http://www.w3.org/2000/svg">
    <path style="fill:none" d="M0 0h143.89v144.44H0z" transform="matrix(8.29308 0 0 5.62825 1.066 -.934)"/>
    <path d="M-19.984 250.989v-5.87c-.12-6.84-1.92-9-8.156-9-7.797 0-7.435 6-7.435 12.11v2.76zm-31.185-1.8c-.719-15.95 7.437-25.06 22.79-25.06 21.71 0 23.987 11.27 23.987 29.74v9.12h-31.183v9.83c.118 8.88 3.476 10.56 8.154 10.56 5.758 0 7.437-4.2 7.198-12.72h15.592c.601 15.12-5.638 24.71-21.589 24.71-17.992 0-25.309-8.51-24.949-28.42v-17.76M18.418 271.009v4.76c0 3.87 1.258 7.28 6.293 7.28 3.687 0 5.304-3.32 5.304-6.74 0-5.66-4.675-7.82-8.811-10.34-4.855-2.78-8.988-5.39-11.956-8.81-2.876-3.41-4.585-7.55-4.585-13.48 0-12.68 7.643-19.15 19.868-19.15 13.754 0 20.765 9.17 20.046 21.85H30.015c-.18-3.96 0-9.35-5.214-9.71-3.238-.27-5.125 1.53-5.484 4.49-.449 4.05 1.617 6.12 4.765 8.27 5.933 3.78 11.058 6.12 14.742 9.53 3.686 3.42 5.843 7.91 5.843 16.09 0 12.95-7.191 20.14-20.315 20.14-14.475 0-20.588-8.09-20.588-16.99v-7.19h14.654M51.596 226.149h15.82v50.88c0 3.24.991 6.02 5.484 6.02 4.136 0 5.394-3.59 5.394-6.47v-50.43h15.822v48.81c0 11.42-5.124 20.23-21.306 20.23-13.394 0-21.214-6.38-21.214-20.23v-48.81M118.938 255.189c2.965-.09 6.382.27 8.898-1.71 1.617-1.8 1.977-4.5 1.977-6.83 0-2.61-.27-6.57-2.965-7.82-1.528-.54-3.687-.54-6.203-.54h-1.707zm-15.823 38.38v-67.42h18.788c6.113 0 14.924.54 19.327 5.57 3.687 4.14 4.405 9.17 4.405 14.66 0 7.28-1.707 15.46-8.898 18.78-5.484 2.7-11.866 1.89-17.799 2.16v26.25h-15.823" style="fill:#3871c1;fill-rule:nonzero" transform="translate(180.834 -536.83) scale(2.54904)"/>
    <path d="M51.495 38.235c-11.034 7.208-18.33 19.665-18.33 33.813 0 .863.027 1.719.08 2.564.528 13.748 6.358 26.153 15.513 35.206 9.501 9.395 22.577 15.181 36.981 15.1a51.866 51.866 0 0 0 19.557-3.922 58.06 58.06 0 0 1-31.773 9.411c-21.666 0-40.59-11.833-50.659-29.386l-.003-.005a46.485 46.485 0 0 1-1.616-4.415 46.838 46.838 0 0 1-2.089-14.165c.077-12.906 5.379-24.57 13.895-32.985a46.605 46.605 0 0 1 18.444-11.216Z" style="fill:#3871c1" transform="matrix(2.78963 0 0 2.78963 386.684 262.451)"/>
    <path d="M51.495 38.235c-11.034 7.208-18.33 19.665-18.33 33.813 0 .863.027 1.719.08 2.564.528 13.748 6.358 26.153 15.513 35.206 9.501 9.395 22.577 15.181 36.981 15.1a51.866 51.866 0 0 0 19.557-3.922 58.06 58.06 0 0 1-31.773 9.411c-21.666 0-40.59-11.833-50.659-29.386l-.003-.005a46.485 46.485 0 0 1-1.616-4.415 46.838 46.838 0 0 1-2.089-14.165c.077-12.906 5.379-24.57 13.895-32.985a46.605 46.605 0 0 1 18.444-11.216Z" style="fill:#3871c1" transform="matrix(-1.389 -2.41924 2.41923 -1.389 552.444 729.77)"/>
    <path d="M51.495 38.235c-11.034 7.208-18.33 19.665-18.33 33.813 0 .863.027 1.719.08 2.564.528 13.748 6.358 26.153 15.513 35.206 9.501 9.395 22.577 15.181 36.981 15.1a51.866 51.866 0 0 0 19.557-3.922 58.06 58.06 0 0 1-31.773 9.411c-21.666 0-40.59-11.833-50.659-29.386l-.003-.005a46.485 46.485 0 0 1-1.616-4.415 46.838 46.838 0 0 1-2.089-14.165c.077-12.906 5.379-24.57 13.895-32.985a46.605 46.605 0 0 1 18.444-11.216Z" style="fill:#3871c1" transform="matrix(-1.40758 2.40847 -2.40848 -1.40757 874.096 352.09)"/>
    <path d="M158.813 339.523v14.503c0 .724-.587 1.311-1.311 1.311h-6.158a1.311 1.311 0 0 1-1.311-1.311v-29.235c0-6.325 1.576-11.234 4.604-14.579 3.062-3.384 7.631-5.227 13.743-5.227 5.731 0 10.223 1.784 13.3 5.157 3.035 3.326 4.715 8.251 4.715 14.715 0 6.151-1.721 10.941-4.591 14.208-2.935 3.343-7.082 5.134-11.965 5.134-5.512 0-8.984-2.157-11.026-4.676zm18.868-14.798v-.067c-.011-4.605-1.188-7.919-3.478-9.81-1.477-1.219-3.404-1.811-5.691-1.811-3.052 0-5.498.897-7.162 2.801-1.728 1.977-2.603 4.969-2.603 8.953 0 5.89 2.697 11.356 9.235 11.356 2.877 0 5.303-.894 6.996-2.761 1.741-1.92 2.692-4.816 2.703-8.661zm78.635-15.114v-14.453c0-.724.587-1.312 1.311-1.312h6.092c.724 0 1.311.588 1.311 1.312v29.235c0 6.255-1.591 11.164-4.618 14.527-3.064 3.404-7.619 5.279-13.663 5.279-5.696 0-10.189-1.816-13.276-5.208-3.045-3.344-4.739-8.27-4.739-14.664 0-6.15 1.721-10.94 4.581-14.207 2.928-3.344 7.06-5.135 11.909-5.135 5.67 0 9.106 2.136 11.092 4.626zm0 14.782c0-5.888-2.633-11.356-9.169-11.356-2.91 0-5.355.894-7.058 2.757-1.756 1.921-2.707 4.822-2.707 8.665 0 3.898.882 6.876 2.559 8.863 1.599 1.894 3.918 2.825 6.742 2.825 3.045 0 5.457-.893 7.089-2.792 1.7-1.979 2.544-4.974 2.544-8.962z" style="fill:#ed184e" transform="matrix(9.69925 0 0 9.69928 -1404.005 -2696.815)"/>
    <path d="M-2.349 313.789c17.646-7.52 38.194-7.81 51.064-2.14 13.246 5.57 15.956 14.07 15.756 13.78.109-.09-7.647-2.12-17.995-.5-10.404 1.34-22.935 6.57-37.679 12.71-3.079 1.27-8.825 3.7-14.044 4.56-5.235 1.13-10.539 1.1-15.327.6a50.883 50.883 0 0 1-22.751-8.32c-10.915-7.46-14.151-15.62-14.201-15.52-.043-.05 7.861 2.18 18.921 2.89 5.492.36 11.684.16 17.549-1.12 2.932-.65 5.837-1.35 8.633-2.56 2.948-1.05 5.047-2.27 10.074-4.38" style="fill:#3871c1;fill-rule:nonzero" transform="matrix(2.5064 0 0 2.5064 770.945 -691.25)"/>
</svg>
