<?xml version="1.0" encoding="utf-8"?>
<!-- Generator: Adobe Illustrator 26.0.1, SVG Export Plug-In . SVG Version: 6.00 Build 0)  -->
<svg version="1.1" id="Calque_1" xmlns="http://www.w3.org/2000/svg" xmlns:xlink="http://www.w3.org/1999/xlink" x="0px" y="0px"
	 viewBox="0 0 605.1 162.2" style="enable-background:new 0 0 605.1 162.2;" xml:space="preserve">
<path d="M21.4,94.3V3.7H2.7v92.5c0,39.5,22.9,63.3,59.2,63.3h39.4l8-17.8H67.2C37.4,141.8,21.4,126.5,21.4,94.3z"/>
<path d="M97.7,71.2V3.7H80.4v79.4c-0.1,2.4,1.8,4.4,4.2,4.4c0.1,0,0.2,0,0.3,0H134l7.3-16.4L97.7,71.2z"/>
<path d="M59.9,92.3V3.7h-18v89.2c0,19.3,11.4,30.4,31.2,30.4h44.8l7.7-17.4H73.9C64.8,106,59.9,101.6,59.9,92.3z"/>
<path d="M300.3,2.8c-3.1-0.2-5.8,2.3-6,5.4c0,0.2,0,0.4,0,0.6c-0.1,3.2,2.4,5.9,5.6,6.1c0.1,0,0.3,0,0.4,0c3.3,0,6-2.7,6-6
	S303.6,2.9,300.3,2.8L300.3,2.8z"/>
<path d="M259.5,110.4c-14.5,0-24.4,9.9-24.4,24.6c0,16,9.6,25.4,24.7,25.4c11.1,0,20.1-6.1,22.2-14.8h-10.2
	c-1.7,3.9-6.1,6.6-12.1,6.6c-8.3,0-13.5-4.5-14.6-13.3h37.5c0.2-1.3,0.3-2.6,0.3-3.9C282.8,120.3,274.3,110.4,259.5,110.4z
	 M245.1,131.2c1.2-7.7,6.2-12.6,14.2-12.6S273,124,273,131.2H245.1z"/>
<path d="M266.9,22.1c-6.5,0-12.2,2.5-15.7,6.8V23h-9.6v48.1h9.6l0.1-27.6c0-8,4.6-12.9,12.1-12.9c7.2,0,11.1,4.4,11.1,12.9v27.6h9.6
	V41.4C284.1,29.8,278.2,22.1,266.9,22.1z"/>
<rect x="295.4" y="23" width="9.6" height="48.2"/>
<path d="M216.9,118.1c-3.5-4.4-9.6-7.7-17-7.7c-13.6,0-23.6,10.3-23.6,25.2s9.7,24.8,23.4,24.8c7.8,0,13.8-2.4,17.2-7.6v6.6h9.6
	V92.1h-9.6V118.1z M201.7,152c-9.8,0-15.4-7.2-15.4-16.4s5.7-16.4,15.4-16.4c9.1,0,15.5,7.2,15.5,16.4S211.2,152,201.7,152z"/>
<path d="M429.2,31.7h17V23h-14c-6.7-0.2-12.4,5-12.6,11.8c0,0.3,0,0.6,0,0.9v35.5h9.6L429.2,31.7z"/>
<polygon points="588,3.8 576.6,3.8 570.2,17.7 578.9,17.7 "/>
<path d="M220.2,45.2c0,11.6-5.1,17.6-16.3,17.6s-16.5-6.1-16.5-17.6V3.8h-10.3V45c0,18.2,9.8,27.1,26.8,27.1s26.6-9,26.6-27.2V3.8
	h-10.3V45.2z"/>
<polygon points="341.6,71.2 359.9,23 349.5,23 335.6,63.1 321.6,23 311.2,23 329.5,71.2 "/>
<path d="M476.5,43l-11.1-1.8c-3.8-0.6-5.8-2.4-5.8-5.5c0-3.8,4-6,9.5-6c6.5,0,10.1,2.9,10.5,7.7h9.3c-0.5-10-7.3-15.5-19.8-15.5
	c-11.9,0-18.5,5.8-18.5,14.2c0,8.1,5,12.2,13.2,13.6l10.2,1.6c4.6,0.8,6.5,3.8,6.5,6.6c0,3.9-4,6.2-10.7,6.2
	c-7.2,0-10.6-3.6-11.2-7.4h-9.5c0.6,9.4,8.6,15.5,20.7,15.5c12.4,0,19.9-5.3,19.9-14.8C489.8,49,485.2,44.5,476.5,43z"/>
<path d="M504.4,2.8c-3.1-0.2-5.8,2.3-6,5.4c0,0.2,0,0.4,0,0.6c-0.1,3.2,2.4,5.9,5.6,6.1c0.1,0,0.3,0,0.4,0c3.3,0,6-2.7,6-6
	S507.7,2.9,504.4,2.8L504.4,2.8z"/>
<rect x="499.5" y="23" width="9.6" height="48.2"/>
<polygon points="324.2,92.1 313.9,92.1 313.9,159.5 352.8,159.5 352.8,150.6 324.2,150.6 "/>
<path d="M530.7,8H521v50.8c0,7.3,5.2,12.4,12.5,12.4h12v-8.7h-14.9V31.7h14.9V23h-14.9V8z"/>
<path d="M598,46.7C598,32,589.5,22,574.7,22c-14.5,0-24.4,9.9-24.4,24.7c0,16,9.6,25.4,24.7,25.4c11.1,0,20.1-6.1,22.2-14.8H587
	c-1.7,3.9-6.1,6.6-12.1,6.6c-8.3,0-13.5-4.5-14.6-13.3h37.5C597.9,49.3,598,48,598,46.7z M560.2,42.8c1.2-7.7,6.2-12.6,14.2-12.6
	s13.8,5.4,13.8,12.6H560.2z"/>
<path d="M457.5,110.4c-14.5,0-24.4,9.9-24.4,24.6c0,16,9.6,25.4,24.7,25.4c11.1,0,20.1-6.1,22.2-14.8h-10.2
	c-1.7,3.9-6.1,6.6-12.1,6.6c-8.3,0-13.5-4.5-14.6-13.3h37.5c0.2-1.3,0.3-2.6,0.3-3.9C480.8,120.3,472.3,110.4,457.5,110.4z
	 M443,131.2c1.2-7.7,6.2-12.6,14.2-12.6S471,124,471,131.2H443z"/>
<path d="M364.7,91.1c-3.1-0.2-5.8,2.3-6,5.4c0,0.2,0,0.4,0,0.6c-0.1,3.2,2.4,5.9,5.6,6.1c0.1,0,0.3,0,0.4,0c3.3,0,6-2.7,6-6
	S368,91.2,364.7,91.1L364.7,91.1z"/>
<path d="M418.3,92.1h-9.6v55.1c0,7.7,4.5,12.3,12.4,12.3h9.6v-8.9h-12.4V92.1z"/>
<rect x="359.8" y="111.4" width="9.6" height="48.2"/>
<path d="M391,92.1h-9.6v55.1c0,7.7,4.5,12.3,12.4,12.3h9.6v-8.9H391V92.1z"/>
<path d="M399,57.3c-1.7,3.9-6.1,6.6-12.1,6.6c-8.3,0-13.5-4.5-14.6-13.3h37.5c0.2-1.3,0.3-2.7,0.3-4c0-14.7-8.5-24.7-23.3-24.7
	c-14.5,0-24.4,9.9-24.4,24.7c0,16,9.6,25.4,24.6,25.4c11.1,0,20.1-6.1,22.2-14.8L399,57.3z M386.4,30.2c8.1,0,13.8,5.4,13.8,12.6
	h-27.9C373.4,35.2,378.4,30.2,386.4,30.2z"/>
</svg>
