<?xml version="1.0" encoding="UTF-8" standalone="no"?><!DOCTYPE svg PUBLIC "-//W3C//DTD SVG 1.1//EN" "http://www.w3.org/Graphics/SVG/1.1/DTD/svg11.dtd"><svg width="100%" height="100%" viewBox="0 0 144 145" version="1.1" xmlns="http://www.w3.org/2000/svg" xmlns:xlink="http://www.w3.org/1999/xlink" xml:space="preserve" xmlns:serif="http://www.serif.com/" style="fill-rule:evenodd;clip-rule:evenodd;stroke-linejoin:round;stroke-miterlimit:2;"><g id="Calque1"><path d="M45.439,46.533c-11.034,7.208 -18.33,19.665 -18.33,33.814c-0,0.862 0.027,1.718 0.08,2.564c0.528,13.747 6.358,26.153 15.512,35.205c9.502,9.395 22.577,15.181 36.981,15.1c6.924,-0.039 13.527,-1.429 19.558,-3.922c-9.146,5.952 -20.059,9.411 -31.773,9.411c-21.666,0 -40.59,-11.833 -50.659,-29.386l-0.003,-0.005c-0.61,-1.436 -1.15,-2.91 -1.616,-4.415c-1.386,-4.475 -2.119,-9.234 -2.089,-14.165c0.077,-12.906 5.378,-24.57 13.895,-32.984c5.129,-5.068 11.424,-8.955 18.444,-11.217Z"/><path d="M60.882,112.123c11.745,5.98 26.181,6.105 38.451,-0.939c0.748,-0.43 1.477,-0.879 2.183,-1.347c11.66,-7.302 19.515,-18.535 22.808,-30.982c3.416,-12.917 1.924,-27.138 -5.318,-39.589c-3.481,-5.985 -7.975,-11.019 -13.14,-15.008c9.716,4.968 18.149,12.71 23.982,22.868c10.788,18.79 9.948,41.093 -0.26,58.565l-0.003,0.005c-0.942,1.244 -1.951,2.446 -3.024,3.6c-3.191,3.43 -6.953,6.435 -11.244,8.865c-11.232,6.359 -23.986,7.569 -35.524,4.373c-6.948,-1.925 -13.454,-5.449 -18.911,-10.411Z"/><path d="M109.673,65.598c-0.656,-13.163 -7.729,-25.748 -19.945,-32.887c-0.744,-0.435 -1.497,-0.843 -2.254,-1.224c-12.135,-6.481 -25.787,-7.707 -38.222,-4.371c-12.905,3.463 -24.499,11.832 -31.697,24.309c-3.46,5.997 -5.591,12.4 -6.481,18.864c-0.525,-10.9 1.995,-22.066 7.906,-32.18c10.932,-18.706 30.697,-29.073 50.932,-28.91l0.006,-0c1.548,0.198 3.092,0.475 4.627,0.832c4.563,1.062 9.041,2.83 13.284,5.344c11.104,6.579 18.499,17.041 21.466,28.64c1.787,6.984 1.967,14.381 0.378,21.583Z"/></g></svg>