<?xml version="1.0" encoding="utf-8"?>
<!-- Generator: Adobe Illustrator 26.5.0, SVG Export Plug-In . SVG Version: 6.00 Build 0)  -->
<svg version="1.1" xmlns:serif="http://www.serif.com/"
	 xmlns="http://www.w3.org/2000/svg" xmlns:xlink="http://www.w3.org/1999/xlink" x="0px" y="0px" viewBox="0 0 612 612"
	 style="enable-background:new 0 0 612 612;" xml:space="preserve">
<style type="text/css">
	:root { fill: #000 }
</style>
<g id="logoPod">
	<path d="M184.2,190.3c-46.6,30.4-77.4,83-77.4,142.7c0,3.6,0.1,7.3,0.3,10.8c2.2,58,26.8,110.4,65.5,148.6
		c40.1,39.7,95.3,64.1,156.1,63.7c29.2-0.2,57.1-6,82.5-16.6c-38.6,25.1-84.7,39.7-134.1,39.7c-91.4,0-171.3-49.9-213.8-124l0,0
		c-2.6-6.1-4.9-12.3-6.8-18.6c-5.8-18.9-8.9-39-8.8-59.8c0.3-54.5,22.7-103.7,58.6-139.2C128,216.2,154.6,199.8,184.2,190.3
		L184.2,190.3z"/>
	<path d="M249.4,467.1c49.6,25.2,110.5,25.8,162.3-4c3.2-1.8,6.2-3.7,9.2-5.7c49.2-30.8,82.4-78.2,96.3-130.8
		c14.4-54.5,8.1-114.5-22.4-167.1c-14.7-25.3-33.7-46.5-55.5-63.3c41,21,76.6,53.6,101.2,96.5c45.5,79.3,42,173.4-1.1,247.2l0,0
		c-4,5.3-8.2,10.3-12.8,15.2c-13.5,14.5-29.3,27.2-47.5,37.4c-47.4,26.8-101.2,31.9-149.9,18.5C299.9,502.9,272.4,488.1,249.4,467.1
		L249.4,467.1z"/>
	<path d="M455.3,270.7c-2.8-55.6-32.6-108.7-84.2-138.8c-3.1-1.8-6.3-3.6-9.5-5.2c-51.2-27.4-108.8-32.5-161.3-18.4
		c-54.5,14.6-103.4,49.9-133.8,102.6c-14.6,25.3-23.6,52.3-27.4,79.6c-2.2-46,8.4-93.1,33.4-135.8c46.1-79,129.6-122.7,215-122h0
		c6.5,0.8,13.1,2,19.5,3.5c19.3,4.5,38.2,11.9,56.1,22.6c46.9,27.8,78.1,71.9,90.6,120.9C461.2,209.1,462,240.3,455.3,270.7z"/>
</g>
</svg>
