<svg id="UL" xmlns="http://www.w3.org/2000/svg" viewBox="0 0 650.44 213.9"><defs><style>.cls-1{fill:#fff;}</style></defs><title>UL-BLANC-2014</title><path class="cls-1" d="M181.89,0V210.43L152.36,197l-21.11,8.82h0l-1.84.76a101.12,101.12,0,0,1-38.65,7.36c-25.3,0-48.31-8.58-64.79-24.15-17-16.06-26-38-26-63.35V0H181.89ZM48.2,37.84V150.58l44.12,20.13V37.84H48.2Zm54.25,107.68v25.19L145.61,151V125.83Z"/><path class="cls-1" d="M398.45,40.24c-1.72,20.26-10.11,38.13-12.67,43.18l-0.67,1.32-0.67-1.32c-2.55-5-10.95-22.92-12.67-43.17h-8.61c0.51,5,3.8,31.93,17.07,50.45H390c13.28-18.52,16.56-45.46,17.07-50.45h-8.61Z"/><path class="cls-1" d="M595.84,90.69h4.77V82.94h-3c-4.5,0-6.6-2.23-6.6-7V46.67h9.58V40.24H591V19.46h-8.88V40.24h-6.34v6.44h6.34V76.55C582.15,89.31,591.72,90.69,595.84,90.69Z"/><path class="cls-1" d="M271,19.51h-9.09v47c0,10.1-6.25,16.63-15.92,16.63s-15.92-6.53-15.92-16.63v-47H221V67a23.63,23.63,0,0,0,7.15,17.45A25.74,25.74,0,0,0,246,91.1a26.51,26.51,0,0,0,15.2-4.49l0.35-.24L271,90.69V19.51Z"/><path class="cls-1" d="M306.72,47.72c7,0,11.11,4.58,11.11,12.26V90.69h8.89V58.45c0-6.35-1.53-10.67-5-14-2.33-2.25-6.83-4.94-15-4.94a21.26,21.26,0,0,0-11.83,3.74l-0.35.25-7.82-3.57V90.69h8.89V60C295.61,52.3,299.76,47.72,306.72,47.72Z"/><path class="cls-1" d="M488.15,47.72a12.1,12.1,0,0,1,5.22,1.09l4.69-7.61a26.5,26.5,0,0,0-9.92-1.72,21.27,21.27,0,0,0-11.83,3.74l-0.35.25-7.82-3.57V90.69H477V60C477,52.3,481.19,47.72,488.15,47.72Z"/><rect class="cls-1" x="341.25" y="40.24" width="8.88" height="50.45"/><rect class="cls-1" x="341.25" y="19.46" width="8.88" height="8.89"/><rect class="cls-1" x="554.06" y="40.24" width="8.88" height="50.45"/><rect class="cls-1" x="554.06" y="19.46" width="8.88" height="8.89"/><rect class="cls-1" x="393.45" y="141.31" width="8.88" height="50.45"/><rect class="cls-1" x="393.45" y="120.52" width="8.88" height="8.89"/><path class="cls-1" d="M451.21,79.28a15.91,15.91,0,0,1-5.43,3.52,21,21,0,0,1-7.58,1.13c-6.77,0-11.46-3.43-13.22-9.65l-0.24-.85,0.87-.13,1.68-.21c5.45-.69,13.69-1.72,20.75-5.55,4.19-2.27,6.56-4.64,7.69-7.69a14.91,14.91,0,0,0,.57-8.92,13.51,13.51,0,0,0-6-8.41c-3.09-2.06-7.44-3-13.66-3a22.56,22.56,0,0,0-9,1.73,17.4,17.4,0,0,0-6.6,5,22.72,22.72,0,0,0-4.11,8.11,39.75,39.75,0,0,0-1.43,11.09c0,9.12,2.21,16,6.55,20.32,3.78,3.79,9.15,5.71,16,5.71a23.25,23.25,0,0,0,18.29-7.36Zm-27-13.61V61.18a28.73,28.73,0,0,1,.33-4,14.68,14.68,0,0,1,1.06-3.42c1.63-3.91,5.87-6.34,11.07-6.34,3.66,0,8.51.69,10.79,4a6.15,6.15,0,0,1,.65,5.1c-0.86,2.73-3.49,5-7.6,6.5a67.43,67.43,0,0,1-15.44,3.39l-0.83.09Z"/><path class="cls-1" d="M309.61,180.34a15.91,15.91,0,0,1-5.43,3.52A21,21,0,0,1,296.6,185c-6.76,0-11.46-3.43-13.22-9.65l-0.23-.81,0.82-.17,1.71-.22c5.45-.68,13.7-1.72,20.77-5.55,4.19-2.27,6.56-4.64,7.69-7.69a14.93,14.93,0,0,0,.57-8.93,13.51,13.51,0,0,0-6-8.41c-3.09-2.06-7.44-3-13.66-3a22.62,22.62,0,0,0-9,1.73,17.45,17.45,0,0,0-6.6,5,22.75,22.75,0,0,0-4.11,8.11,39.79,39.79,0,0,0-1.43,11.09c0,9.12,2.21,16,6.55,20.32,3.78,3.79,9.15,5.71,16,5.71a23.24,23.24,0,0,0,18.29-7.36Zm-27-13.61v-4.48a28.71,28.71,0,0,1,.33-4,14.81,14.81,0,0,1,1.06-3.42c1.63-3.91,5.87-6.34,11.07-6.34,3.66,0,8.51.69,10.79,4a6.15,6.15,0,0,1,.65,5.1c-0.86,2.73-3.49,5-7.59,6.5a67.29,67.29,0,0,1-15.44,3.39l-0.83.09Z"/><path class="cls-1" d="M509.82,180.34a15.88,15.88,0,0,1-5.43,3.52,21,21,0,0,1-7.58,1.13c-6.77,0-11.46-3.43-13.23-9.65l-0.23-.81,0.82-.17,1.71-.22c5.45-.68,13.7-1.72,20.77-5.55,4.19-2.27,6.56-4.64,7.69-7.69a14.92,14.92,0,0,0,.57-8.93,13.51,13.51,0,0,0-6-8.41c-3.09-2.06-7.44-3-13.66-3a22.63,22.63,0,0,0-9,1.73,17.46,17.46,0,0,0-6.6,5,22.78,22.78,0,0,0-4.11,8.11,39.81,39.81,0,0,0-1.42,11.09c0,9.12,2.2,16,6.55,20.32,3.78,3.79,9.15,5.71,16,5.71a23.24,23.24,0,0,0,18.29-7.36Zm-27-13.61v-4.48a28.71,28.71,0,0,1,.33-4,14.78,14.78,0,0,1,1.06-3.42c1.63-3.91,5.87-6.34,11.07-6.34,3.66,0,8.51.69,10.79,4a6.15,6.15,0,0,1,.65,5.1c-0.86,2.73-3.49,5-7.59,6.5a67.28,67.28,0,0,1-15.44,3.39l-0.83.09Z"/><path class="cls-1" d="M644.91,79.28a15.9,15.9,0,0,1-5.43,3.52,21,21,0,0,1-7.58,1.13c-6.77,0-11.46-3.43-13.23-9.65l-0.24-.85,0.87-.13,1.68-.21c5.45-.69,13.69-1.72,20.76-5.55,4.19-2.27,6.56-4.64,7.69-7.69a14.92,14.92,0,0,0,.57-8.92,13.52,13.52,0,0,0-6-8.41c-3.09-2.06-7.43-3-13.66-3a22.56,22.56,0,0,0-9,1.73,17.42,17.42,0,0,0-6.6,5,22.76,22.76,0,0,0-4.11,8.11,39.82,39.82,0,0,0-1.42,11.09c0,9.12,2.21,16,6.55,20.32,3.78,3.79,9.15,5.71,16,5.71A23.25,23.25,0,0,0,650,84.08Zm-27-13.61V61.18a28.73,28.73,0,0,1,.33-4,14.82,14.82,0,0,1,1.06-3.42c1.63-3.91,5.88-6.34,11.07-6.34,3.66,0,8.51.69,10.79,4a6.14,6.14,0,0,1,.65,5.1c-0.86,2.73-3.49,5-7.59,6.5a67.44,67.44,0,0,1-15.44,3.39L618,66.5Z"/><path class="cls-1" d="M527.72,61.62l-8.15-.72c-5.26-.49-7.81-2.69-7.81-6.72,0-4.59,3.88-7.44,10.12-7.44,5.34,0,9.6,1.19,12.66,3.55L540,44.66c-4.29-3.48-10.21-5.17-18-5.17-9.3,0-18.69,4.7-18.69,15.21,0,8.37,4.77,12.84,14.58,13.68l8.25,0.72c5,0.42,7.61,2.76,7.61,6.94,0,4.9-4.62,8-12.05,8-6.26,0-11.25-1.73-14.86-5.15l-5.76,5.83c5.1,4.81,11.14,6.79,20.62,6.79,12.79,0,20.73-6.07,20.73-15.84C542.41,67.16,537.47,62.45,527.72,61.62Z"/><path class="cls-1" d="M262.54,120.52h-8.88v22.61l-1.05-.46a27.19,27.19,0,0,0-10.94-2c-14,0-21.14,8.62-21.14,25.62,0,21.26,12.22,25.72,22.47,25.72a18.21,18.21,0,0,0,11.2-3.8l0.35-.26,8,3.64V120.52Zm-8.88,55.55c0,4.17-3.93,8.49-10.46,8.49-8.7,0-13.89-5.69-13.89-15.21v-7.22a17.12,17.12,0,0,1,1.39-7.33c1.62-3.85,5.84-6.25,11-6.25,7.69,0,11.94,2.91,12,8.19C253.67,161.5,253.68,171.18,253.66,176.07Z"/><path class="cls-1" d="M362.47,191.75h21.38v-7.36H364.29c-4.34,0-6.36-2.15-6.36-6.77v-57.1h-8.88v57.71C349.05,186.7,354.07,191.75,362.47,191.75Z"/><path class="cls-1" d="M432.63,191.75h4.77V184h-3c-4.5,0-6.6-2.23-6.6-7V120.52h-8.88v57.09C418.94,190.38,428.52,191.75,432.63,191.75Z"/><path class="cls-1" d="M462,191.75h4.77V184h-3c-4.5,0-6.6-2.23-6.6-7V120.52H448.3v57.09C448.3,190.38,457.88,191.75,462,191.75Z"/><polygon class="cls-1" points="619.36 27.36 619.36 34.78 641.57 24.64 641.57 17.22 619.36 27.36"/></svg>